solid makerclip
facet normal 0.0 -1.0 0.0
  outer loop
    vertex 91.0 0.0 11.3
    vertex 7.16999814595789e-019 -1.28548129676479e-017 0.2
    vertex 91.0 -1.28548129676479e-017 0.2
  endloop
endfacet
facet normal 0.0 -1.0 0.0
  outer loop
    vertex 7.16999814595789e-019 -1.28548129676479e-017 0.2
    vertex 91.0 0.0 11.3
    vertex 0.0 0.0 11.3
  endloop
endfacet
facet normal 0.0 -0.382683432365088 0.923879532511288
  outer loop
    vertex 91.0 -1.09440034459324 13.8896848231118
    vertex 3.38395977905748e-014 -0.752172276680524 14.0058555982674
    vertex 3.38395977905748e-014 -1.09440034459324 13.8896848231118
  endloop
endfacet
facet normal 0.0 -0.258819045102518 0.965925826289069
  outer loop
    vertex 3.38395977905748e-014 -0.752172276680524 14.0058555982674
    vertex 91.0 -1.09440034459324 13.8896848231118
    vertex 91.0 -0.752172276680524 14.0058555982674
  endloop
endfacet
facet normal 0.0 -0.965925826289068 0.258819045102522
  outer loop
    vertex 91.0 -2.70585559826736 12.0521722766805
    vertex 0.0 -2.77636278976168 11.6977086884023
    vertex 91.0 -2.77636278976168 11.6977086884023
  endloop
endfacet
facet normal -3.27278436496843e-006 -0.995195633227952 0.0979063409249067
  outer loop
    vertex 0.0 -2.77636278976168 11.6977086884023
    vertex 91.0 -2.70585559826736 12.0521722766805
    vertex 3.38395977905748e-014 -2.70585559826736 12.0521722766805
  endloop
endfacet
facet normal 0.0 -0.923879532511286 0.382683432365091
  outer loop
    vertex 91.0 -2.5896848231118 12.3944003445933
    vertex 3.38395977905748e-014 -2.70585559826736 12.0521722766805
    vertex 91.0 -2.70585559826736 12.0521722766805
  endloop
endfacet
facet normal 0.0 -0.965925826289068 0.258819045102521
  outer loop
    vertex 3.38395977905748e-014 -2.70585559826736 12.0521722766805
    vertex 91.0 -2.5896848231118 12.3944003445933
    vertex 3.38395977905748e-014 -2.5896848231118 12.3944003445933
  endloop
endfacet
facet normal 0.0 -0.866025403784438 0.5
  outer loop
    vertex 91.0 -2.42983817846654 12.7185372750149
    vertex 3.38395977905748e-014 -2.5896848231118 12.3944003445933
    vertex 91.0 -2.5896848231118 12.3944003445933
  endloop
endfacet
facet normal 0.0 -0.923879532511286 0.382683432365091
  outer loop
    vertex 3.38395977905748e-014 -2.5896848231118 12.3944003445933
    vertex 91.0 -2.42983817846654 12.7185372750149
    vertex 3.38395977905748e-014 -2.42983817846654 12.7185372750149
  endloop
endfacet
facet normal 0.0 -0.608761429008723 0.793353340291234
  outer loop
    vertex 91.0 -1.71903699519821 13.5290506847393
    vertex 3.38395977905748e-014 -1.41853727501489 13.7298381784666
    vertex 3.38395977905748e-014 -1.71903699519821 13.5290506847393
  endloop
endfacet
facet normal 0.0 -0.500000000000001 0.866025403784438
  outer loop
    vertex 3.38395977905748e-014 -1.41853727501489 13.7298381784666
    vertex 91.0 -1.71903699519821 13.5290506847393
    vertex 91.0 -1.41853727501489 13.7298381784666
  endloop
endfacet
facet normal 0.0 -0.707106781186546 0.707106781186549
  outer loop
    vertex 91.0 -1.99075787161662 13.2907578716166
    vertex 3.38395977905748e-014 -1.71903699519821 13.5290506847393
    vertex 3.38395977905748e-014 -1.99075787161662 13.2907578716166
  endloop
endfacet
facet normal 0.0 -0.608761429008723 0.793353340291234
  outer loop
    vertex 3.38395977905748e-014 -1.71903699519821 13.5290506847393
    vertex 91.0 -1.99075787161662 13.2907578716166
    vertex 91.0 -1.71903699519821 13.5290506847393
  endloop
endfacet
facet normal 0.0 -0.707106781186546 0.707106781186549
  outer loop
    vertex 91.0 -1.99075787161662 13.2907578716166
    vertex 3.38395977905748e-014 -2.22905068473932 13.0190369951982
    vertex 91.0 -2.22905068473932 13.0190369951982
  endloop
endfacet
facet normal 0.0 -0.793353340291234 0.608761429008722
  outer loop
    vertex 3.38395977905748e-014 -2.22905068473932 13.0190369951982
    vertex 91.0 -1.99075787161662 13.2907578716166
    vertex 3.38395977905748e-014 -1.99075787161662 13.2907578716166
  endloop
endfacet
facet normal 0.0 -0.793353340291234 0.608761429008722
  outer loop
    vertex 91.0 -2.22905068473932 13.0190369951982
    vertex 3.38395977905748e-014 -2.42983817846654 12.7185372750149
    vertex 91.0 -2.42983817846654 12.7185372750149
  endloop
endfacet
facet normal 0.0 -0.866025403784438 0.5
  outer loop
    vertex 3.38395977905748e-014 -2.42983817846654 12.7185372750149
    vertex 91.0 -2.22905068473932 13.0190369951982
    vertex 3.38395977905748e-014 -2.22905068473932 13.0190369951982
  endloop
endfacet
facet normal 0.0 -0.258819045102518 0.965925826289069
  outer loop
    vertex 3.38395977905748e-014 -0.752172276680524 14.0058555982674
    vertex 91.0 -0.397708688402265 14.0763627897617
    vertex 0.0 -0.39770868840227 14.1
  endloop
endfacet
facet normal 3.51233289588435e-005 -0.0980788951082787 0.995178641802913
  outer loop
    vertex 91.0 -0.397708688402265 14.0763627897617
    vertex 3.38395977905748e-014 -0.752172276680524 14.0058555982674
    vertex 91.0 -0.752172276680524 14.0058555982674
  endloop
endfacet
facet normal 0.0 -0.500000000000001 0.866025403784438
  outer loop
    vertex 91.0 -1.41853727501489 13.7298381784666
    vertex 3.38395977905748e-014 -1.09440034459324 13.8896848231118
    vertex 3.38395977905748e-014 -1.41853727501489 13.7298381784666
  endloop
endfacet
facet normal 0.0 -0.382683432365088 0.923879532511288
  outer loop
    vertex 3.38395977905748e-014 -1.09440034459324 13.8896848231118
    vertex 91.0 -1.41853727501489 13.7298381784666
    vertex 91.0 -1.09440034459324 13.8896848231118
  endloop
endfacet
facet normal 3.51233289588435e-005 -0.0980788951082787 0.995178641802913
  outer loop
    vertex 91.0 -0.397708688402265 14.0763627897617
    vertex 0.0 60.0 14.1
    vertex 0.0 -0.39770868840227 14.1
  endloop
endfacet
facet normal 6.99100463510626e-005 -0.000120643500965188 0.999999990278866
  outer loop
    vertex 0.0 60.0 14.1
    vertex 91.0 -0.397708688402265 14.0763627897617
    vertex 38.5115545933388 52.9289321091415 14.1
  endloop
endfacet
facet normal 6.99100463510626e-005 -0.000120643500965188 0.999999990278866
  outer loop
    vertex 0.0 60.0 14.1
    vertex 38.5115545933388 52.9289321091415 14.1
    vertex 36.9223683504227 54.9999998924924 14.1
  endloop
endfacet
facet normal 6.99100463510626e-005 -0.000120643500965188 0.999999990278866
  outer loop
    vertex 0.0 60.0 14.1
    vertex 36.9223683504227 54.9999998924924 14.1
    vertex 35.9233640986414 57.4118094170674 14.1
  endloop
endfacet
facet normal 6.99100463510626e-005 -0.000120643500965188 0.999999990278866
  outer loop
    vertex 0.0 60.0 14.1
    vertex 35.9233640986414 57.4118094170674 14.1
    vertex 35.5826223261789 59.9999998510207 14.1
  endloop
endfacet
facet normal 6.99100463510626e-005 -0.000120643500965188 0.999999990278866
  outer loop
    vertex 38.5115545933388 52.9289321091415 14.1
    vertex 91.0 -0.397708688402265 14.0763627897617
    vertex 40.5826224122108 51.3397459125174 14.1
  endloop
endfacet
facet normal 6.99100463510626e-005 -0.000120643500965188 0.999999990278866
  outer loop
    vertex 40.5826224122108 51.3397459125174 14.1
    vertex 91.0 -0.397708688402265 14.0763627897617
    vertex 42.9944319591153 50.3407417146441 14.1
  endloop
endfacet
facet normal 6.99100463510626e-005 -0.000120643500965188 0.999999990278866
  outer loop
    vertex 42.9944319591153 50.3407417146441 14.1
    vertex 91.0 -0.397708688402265 14.0763627897617
    vertex 45.5826224006847 50.0000000000323 14.1
  endloop
endfacet
facet normal 6.99100463510626e-005 -0.000120643500965188 0.999999990278866
  outer loop
    vertex 45.5826224006847 50.0000000000323 14.1
    vertex 91.0 -0.397708688402265 14.0763627897617
    vertex 48.1708128371767 50.3407417532112 14.1
  endloop
endfacet
facet normal 6.99100463510626e-005 -0.000120643500965188 0.999999990278866
  outer loop
    vertex 48.1708128371767 50.3407417532112 14.1
    vertex 91.0 -0.397708688402265 14.0763627897617
    vertex 50.5826223691949 51.3397459870232 14.1
  endloop
endfacet
facet normal 6.99100463510626e-005 -0.000120643500965188 0.999999990278866
  outer loop
    vertex 50.5826223691949 51.3397459870232 14.1
    vertex 91.0 -0.397708688402265 14.0763627897617
    vertex 52.6536901643862 52.9289322145086 14.1
  endloop
endfacet
facet normal 6.99100463510626e-005 -0.000120643500965188 0.999999990278866
  outer loop
    vertex 52.6536901643862 52.9289322145086 14.1
    vertex 91.0 -0.397708688402265 14.0763627897617
    vertex 54.2428763764409 55.0000000215403 14.1
  endloop
endfacet
facet normal 6.99100463510626e-005 -0.000120643500965188 0.999999990278866
  outer loop
    vertex 54.2428763764409 55.0000000215403 14.1
    vertex 91.0 -0.397708688402265 14.0763627897617
    vertex 55.2418805922835 57.4118095610016 14.1
  endloop
endfacet
facet normal 6.99100463510626e-005 -0.000120643500965188 0.999999990278866
  outer loop
    vertex 55.2418805922835 57.4118095610016 14.1
    vertex 91.0 -0.397708688402265 14.0763627897617
    vertex 55.5826223261789 60.0000000000323 14.1
  endloop
endfacet
facet normal 6.99100463510626e-005 -0.000120643500965188 0.999999990278866
  outer loop
    vertex 55.5826223261789 60.0000000000323 14.1
    vertex 91.0 -0.397708688402265 14.0763627897617
    vertex 91.0 60.0 14.1
  endloop
endfacet
facet normal 6.99100463510626e-005 -0.000120643500965188 0.999999990278866
  outer loop
    vertex 91.0 60.0 14.1
    vertex 91.0 -0.397708688402265 14.0763627897617
    vertex 91.0 -0.0370745500297796 14.1
  endloop
endfacet
facet normal 6.34298201288112e-005 -0.000278420281365768 -0.999999959229402
  outer loop
    vertex 4.75164864957151e-017 -0.197658419749069 -2.6
    vertex 91.0 -0.537125928635455 -2.57772663952449
    vertex 3.597248213026e-017 -0.537125928635455 -2.57772663952449
  endloop
endfacet
facet normal 3.18682522994786e-005 -0.0982585058825142 -0.995160924175658
  outer loop
    vertex 91.0 -0.537125928635455 -2.57772663952449
    vertex 4.75164864957151e-017 -0.197658419749069 -2.6
    vertex 4.75164864957152e-017 60.0 -2.6000000000002
  endloop
endfacet
facet normal 3.18682522994786e-005 -0.0982585058825142 -0.995160924175658
  outer loop
    vertex 91.0 -0.537125928635455 -2.57772663952449
    vertex 4.75164864957152e-017 60.0 -2.6000000000002
    vertex 38.5115545254676 52.9289321182651 -2.59999999999999
  endloop
endfacet
facet normal 6.34298201288112e-005 -0.000278420281365768 -0.999999959229402
  outer loop
    vertex 38.5115545254676 52.9289321182651 -2.59999999999999
    vertex 4.75164864957152e-017 60.0 -2.6000000000002
    vertex 36.9223682962217 54.9999999276237 -2.59999999999999
  endloop
endfacet
facet normal 6.34298201288112e-005 -0.000278420281365768 -0.999999959229402
  outer loop
    vertex 36.9223682962217 54.9999999276237 -2.59999999999999
    vertex 4.75164864957152e-017 60.0 -2.6000000000002
    vertex 35.923364067371 57.4118094750226 -2.6
  endloop
endfacet
facet normal 6.34298201288112e-005 -0.000278420281365768 -0.999999959229402
  outer loop
    vertex 35.923364067371 57.4118094750226 -2.6
    vertex 4.75164864957152e-017 60.0 -2.6000000000002
    vertex 35.5826223261789 59.9999999255103 -2.6
  endloop
endfacet
facet normal 3.18682522994786e-005 -0.0982585058825142 -0.995160924175658
  outer loop
    vertex 91.0 -0.537125928635455 -2.57772663952449
    vertex 38.5115545254676 52.9289321182651 -2.59999999999999
    vertex 40.5826223398399 51.3397458955532 -2.59999999999999
  endloop
endfacet
facet normal 3.18682522994786e-005 -0.0982585058825142 -0.995160924175658
  outer loop
    vertex 91.0 -0.537125928635455 -2.57772663952449
    vertex 40.5826223398399 51.3397458955532 -2.59999999999999
    vertex 42.9944318903906 50.3407416743113 -2.59999999999999
  endloop
endfacet
facet normal 3.18682522994786e-005 -0.0982585058825142 -0.995160924175658
  outer loop
    vertex 91.0 -0.537125928635455 -2.57772663952449
    vertex 42.9944318903906 50.3407416743113 -2.59999999999999
    vertex 45.5826223419533 49.9999999412847 -2.59999999999999
  endloop
endfacet
facet normal 3.18682522994786e-005 -0.0982585058825142 -0.995160924175658
  outer loop
    vertex 91.0 -0.537125928635455 -2.57772663952449
    vertex 45.5826223419533 49.9999999412847 -2.59999999999999
    vertex 48.170812792441 50.3407416824768 -2.59999999999999
  endloop
endfacet
facet normal 3.18682522994786e-005 -0.0982585058825142 -0.995160924175658
  outer loop
    vertex 91.0 -0.537125928635455 -2.57772663952449
    vertex 48.170812792441 50.3407416824768 -2.59999999999999
    vertex 50.5826223398399 51.3397459113275 -2.59999999999999
  endloop
endfacet
facet normal 3.18682522994786e-005 -0.0982585058825142 -0.995160924175658
  outer loop
    vertex 91.0 -0.537125928635455 -2.57772663952449
    vertex 50.5826223398399 51.3397459113275 -2.59999999999999
    vertex 52.6536901491985 52.9289321405734 -2.59999999999999
  endloop
endfacet
facet normal 3.18682522994786e-005 -0.0982585058825142 -0.995160924175658
  outer loop
    vertex 91.0 -0.537125928635455 -2.57772663952449
    vertex 52.6536901491985 52.9289321405734 -2.59999999999999
    vertex 54.2428763719105 54.9999999549457 -2.59999999999999
  endloop
endfacet
facet normal 3.18682522994786e-005 -0.0982585058825142 -0.995160924175658
  outer loop
    vertex 91.0 -0.537125928635455 -2.57772663952449
    vertex 54.2428763719105 54.9999999549457 -2.59999999999999
    vertex 55.2418805931523 57.4118095054964 -2.6
  endloop
endfacet
facet normal 3.18682522994786e-005 -0.0982585058825142 -0.995160924175658
  outer loop
    vertex 91.0 -0.537125928635455 -2.57772663952449
    vertex 55.2418805931523 57.4118095054964 -2.6
    vertex 55.5826223261789 59.9999999524016 -2.6000000000002
  endloop
endfacet
facet normal 3.18682522994786e-005 -0.0982585058825142 -0.995160924175658
  outer loop
    vertex 91.0 -0.537125928635455 -2.57772663952449
    vertex 55.5826223261789 59.9999999524016 -2.6000000000002
    vertex 91.0 60.0 -2.6000000000002
  endloop
endfacet
facet normal 0.0 -0.97450162889948 -0.224380425332201
  outer loop
    vertex 91.0 -2.70809915804386 -0.670922134704906
    vertex 1.33463010043815e-017 -2.59916799072083 -0.993208176850765
    vertex 91.0 -2.59916799072083 -0.993208176850765
  endloop
endfacet
facet normal 0.0 -0.924353315750584 -0.38153760975938
  outer loop
    vertex 1.33463010043815e-017 -2.59916799072083 -0.993208176850765
    vertex 91.0 -2.70809915804386 -0.670922134704906
    vertex 1.99701585643645e-017 -2.70809915804386 -0.670922134704906
  endloop
endfacet
facet normal 0.0 -0.924353315750584 -0.38153760975938
  outer loop
    vertex 91.0 -2.59916799072083 -0.993208176850765
    vertex 8.76828535213245e-018 -2.4490599141809 -1.29849796956235
    vertex 91.0 -2.4490599141809 -1.29849796956235
  endloop
endfacet
facet normal 0.0 -0.866575949402432 -0.499045212297718
  outer loop
    vertex 8.76828535213245e-018 -2.4490599141809 -1.29849796956235
    vertex 91.0 -2.59916799072083 -0.993208176850765
    vertex 1.33463010043815e-017 -2.59916799072083 -0.993208176850765
  endloop
endfacet
facet normal 0.0 -0.866575949402432 -0.499045212297718
  outer loop
    vertex 91.0 -2.4490599141809 -1.29849796956235
    vertex 6.31460745755473e-018 -2.26034872064006 -1.58155693445976
    vertex 91.0 -2.26034872064006 -1.58155693445976
  endloop
endfacet
facet normal 0.0 -0.793940045895232 -0.607996055516708
  outer loop
    vertex 6.31460745755473e-018 -2.26034872064006 -1.58155693445976
    vertex 91.0 -2.4490599141809 -1.29849796956235
    vertex 8.76828535213245e-018 -2.4490599141809 -1.29849796956235
  endloop
endfacet
facet normal 0.0 -0.793940045895232 -0.607996055516708
  outer loop
    vertex 91.0 -2.26034872064006 -1.58155693445976
    vertex 6.02733872154288e-018 -2.03627010142288 -1.83753166873275
    vertex 91.0 -2.03627010142288 -1.83753166873275
  endloop
endfacet
facet normal 0.0 -0.707691039367893 -0.706522039853245
  outer loop
    vertex 6.02733872154288e-018 -2.03627010142288 -1.83753166873275
    vertex 91.0 -2.26034872064006 -1.58155693445976
    vertex 6.31460745755473e-018 -2.26034872064006 -1.58155693445976
  endloop
endfacet
facet normal 0.0 -0.609307777772866 -0.79293381309255
  outer loop
    vertex 7.91140472874029e-018 -1.78066616695544 -2.06203316285064
    vertex 91.0 -2.03627010142288 -1.83753166873275
    vertex 6.02733872154288e-018 -2.03627010142288 -1.83753166873275
  endloop
endfacet
facet normal 0.0 -0.707691039367893 -0.706522039853245
  outer loop
    vertex 91.0 -2.03627010142288 -1.83753166873275
    vertex 7.91140472874029e-018 -1.78066616695544 -2.06203316285064
    vertex 91.0 -1.78066616695544 -2.06203316285064
  endloop
endfacet
facet normal 0.0 -0.500477166163594 -0.865749736441692
  outer loop
    vertex 1.19345007921806e-017 -1.49791956893826 -2.25121205566406
    vertex 91.0 -1.78066616695544 -2.06203316285064
    vertex 7.91140472874029e-018 -1.78066616695544 -2.06203316285064
  endloop
endfacet
facet normal 0.0 -0.609307777772866 -0.79293381309255
  outer loop
    vertex 91.0 -1.78066616695544 -2.06203316285064
    vertex 1.19345007921806e-017 -1.49791956893826 -2.25121205566406
    vertex 91.0 -1.49791956893826 -2.25121205566406
  endloop
endfacet
facet normal 0.0 -0.383065242580658 -0.923721289094617
  outer loop
    vertex 1.80276458578727e-017 -1.19287835425763 -2.40182463655478
    vertex 91.0 -1.49791956893826 -2.25121205566406
    vertex 1.19345007921806e-017 -1.49791956893826 -2.25121205566406
  endloop
endfacet
facet normal 0.0 -0.500477166163594 -0.865749736441692
  outer loop
    vertex 91.0 -1.49791956893826 -2.25121205566406
    vertex 1.80276458578727e-017 -1.19287835425763 -2.40182463655478
    vertex 91.0 -1.19287835425763 -2.40182463655478
  endloop
endfacet
facet normal 0.0 -0.259085182477028 -0.965854475695405
  outer loop
    vertex 2.60863652719372e-017 -0.870772839109717 -2.51128846294369
    vertex 91.0 -1.19287835425763 -2.40182463655478
    vertex 1.80276458578727e-017 -1.19287835425763 -2.40182463655478
  endloop
endfacet
facet normal 0.0 -0.383065242580658 -0.923721289094617
  outer loop
    vertex 91.0 -1.19287835425763 -2.40182463655478
    vertex 2.60863652719372e-017 -0.870772839109717 -2.51128846294369
    vertex 91.0 -0.870772839109717 -2.51128846294369
  endloop
endfacet
facet normal 3.18682943942996e-005 -0.0982583764622531 -0.995160936954126
  outer loop
    vertex 3.597248213026e-017 -0.537125928635455 -2.57772663952449
    vertex 91.0 -0.870772839109717 -2.51128846294369
    vertex 2.60863652719372e-017 -0.870772839109717 -2.51128846294369
  endloop
endfacet
facet normal 0.0 -0.259085182477028 -0.965854475695405
  outer loop
    vertex 91.0 -0.870772839109717 -2.51128846294369
    vertex 3.597248213026e-017 -0.537125928635455 -2.57772663952449
    vertex 91.0 -0.537125928635455 -2.57772663952449
  endloop
endfacet
facet normal -6.5139785820817e-006 -0.999999975187691 -0.000222670577044272
  outer loop
    vertex 91.0 -2.8 11.3370745500298
    vertex 2.85262836434094e-017 -2.77402931123639 -0.153237784560383
    vertex 91.0 -2.77402931123639 -0.153237784560383
  endloop
endfacet
facet normal -3.26350908978769e-006 -0.997987829412331 -0.0634057752433756
  outer loop
    vertex 2.85262836434094e-017 -2.77402931123639 -0.153237784560383
    vertex 91.0 -2.8 11.3370745500298
    vertex 3.88679706901885e-017 -2.79569777141745 0.00233802399538501
  endloop
endfacet
facet normal -6.5139785820817e-006 -0.999999975187691 -0.000222670577044272
  outer loop
    vertex 3.88679706901885e-017 -2.79569777141745 0.00233802399538501
    vertex 91.0 -2.8 11.3370745500298
    vertex 0.0 -2.77636278976168 11.6977086884023
  endloop
endfacet
facet normal -3.27278436496843e-006 -0.995195633227952 0.0979063409249067
  outer loop
    vertex 0.0 -2.77636278976168 11.6977086884023
    vertex 91.0 -2.8 11.3370745500298
    vertex 91.0 -2.77636278976168 11.6977086884023
  endloop
endfacet
facet normal -3.26351004450936e-006 -0.997987830586669 -0.0634057567596463
  outer loop
    vertex 91.0 -2.77402931123639 -0.153237784560383
    vertex 1.99701585643645e-017 -2.70809915804386 -0.670922134704906
    vertex 91.0 -2.70809915804386 -0.670922134704906
  endloop
endfacet
facet normal 0.0 -0.97450162889948 -0.224380425332201
  outer loop
    vertex 1.99701585643645e-017 -2.70809915804386 -0.670922134704906
    vertex 91.0 -2.77402931123639 -0.153237784560383
    vertex 2.85262836434094e-017 -2.77402931123639 -0.153237784560383
  endloop
endfacet
facet normal -1.0 -2.09449407802398e-016 1.54381637146379e-015
  outer loop
    vertex 0.0 -2.77636278976168 11.6977086884023
    vertex 2.85262836434094e-017 -2.77402931123639 -0.153237784560383
    vertex 3.88679706901885e-017 -2.79569777141745 0.00233802399538501
  endloop
endfacet
facet normal -1.0 -2.09449407802398e-016 1.54381637146379e-015
  outer loop
    vertex 2.85262836434094e-017 -2.77402931123639 -0.153237784560383
    vertex 0.0 -2.77636278976168 11.6977086884023
    vertex 3.38395977905748e-014 -2.70585559826736 12.0521722766805
  endloop
endfacet
facet normal -1.0 -2.09449407802398e-016 1.54381637146379e-015
  outer loop
    vertex 2.85262836434094e-017 -2.77402931123639 -0.153237784560383
    vertex 3.38395977905748e-014 -2.70585559826736 12.0521722766805
    vertex 1.99701585643645e-017 -2.70809915804386 -0.670922134704906
  endloop
endfacet
facet normal -1.0 -2.09449407802398e-016 1.54381637146379e-015
  outer loop
    vertex 1.99701585643645e-017 -2.70809915804386 -0.670922134704906
    vertex 3.38395977905748e-014 -2.70585559826736 12.0521722766805
    vertex 1.33463010043815e-017 -2.59916799072083 -0.993208176850765
  endloop
endfacet
facet normal -1.0 -2.09449407802398e-016 1.54381637146379e-015
  outer loop
    vertex 1.33463010043815e-017 -2.59916799072083 -0.993208176850765
    vertex 3.38395977905748e-014 -2.70585559826736 12.0521722766805
    vertex 3.38395977905748e-014 -2.5896848231118 12.3944003445933
  endloop
endfacet
facet normal -1.0 -2.09449407802398e-016 1.54381637146379e-015
  outer loop
    vertex 1.33463010043815e-017 -2.59916799072083 -0.993208176850765
    vertex 3.38395977905748e-014 -2.5896848231118 12.3944003445933
    vertex 8.76828535213245e-018 -2.4490599141809 -1.29849796956235
  endloop
endfacet
facet normal -1.0 -2.09449407802398e-016 1.54381637146379e-015
  outer loop
    vertex 8.76828535213245e-018 -2.4490599141809 -1.29849796956235
    vertex 3.38395977905748e-014 -2.5896848231118 12.3944003445933
    vertex 3.38395977905748e-014 -2.42983817846654 12.7185372750149
  endloop
endfacet
facet normal -1.0 -2.09449407802398e-016 1.54381637146379e-015
  outer loop
    vertex 8.76828535213245e-018 -2.4490599141809 -1.29849796956235
    vertex 3.38395977905748e-014 -2.42983817846654 12.7185372750149
    vertex 6.31460745755473e-018 -2.26034872064006 -1.58155693445976
  endloop
endfacet
facet normal -1.0 -2.09449407802398e-016 1.54381637146379e-015
  outer loop
    vertex 6.31460745755473e-018 -2.26034872064006 -1.58155693445976
    vertex 3.38395977905748e-014 -2.42983817846654 12.7185372750149
    vertex 3.38395977905748e-014 -2.22905068473932 13.0190369951982
  endloop
endfacet
facet normal -1.0 -2.09449407802398e-016 1.54381637146379e-015
  outer loop
    vertex 6.31460745755473e-018 -2.26034872064006 -1.58155693445976
    vertex 3.38395977905748e-014 -2.22905068473932 13.0190369951982
    vertex 6.02733872154288e-018 -2.03627010142288 -1.83753166873275
  endloop
endfacet
facet normal -1.0 -2.09449407802398e-016 1.54381637146379e-015
  outer loop
    vertex 6.02733872154288e-018 -2.03627010142288 -1.83753166873275
    vertex 3.38395977905748e-014 -2.22905068473932 13.0190369951982
    vertex 3.38395977905748e-014 -1.99075787161662 13.2907578716166
  endloop
endfacet
facet normal -1.0 -2.09449407802398e-016 1.54381637146379e-015
  outer loop
    vertex 6.02733872154288e-018 -2.03627010142288 -1.83753166873275
    vertex 3.38395977905748e-014 -1.99075787161662 13.2907578716166
    vertex 7.91140472874029e-018 -1.78066616695544 -2.06203316285064
  endloop
endfacet
facet normal -1.0 -2.09449407802398e-016 1.54381637146379e-015
  outer loop
    vertex 7.91140472874029e-018 -1.78066616695544 -2.06203316285064
    vertex 3.38395977905748e-014 -1.99075787161662 13.2907578716166
    vertex 3.38395977905748e-014 -1.71903699519821 13.5290506847393
  endloop
endfacet
facet normal -1.0 -2.09449407802398e-016 1.54381637146379e-015
  outer loop
    vertex 7.91140472874029e-018 -1.78066616695544 -2.06203316285064
    vertex 3.38395977905748e-014 -1.71903699519821 13.5290506847393
    vertex 1.19345007921806e-017 -1.49791956893826 -2.25121205566406
  endloop
endfacet
facet normal -1.0 -2.09449407802398e-016 1.54381637146379e-015
  outer loop
    vertex 1.19345007921806e-017 -1.49791956893826 -2.25121205566406
    vertex 3.38395977905748e-014 -1.71903699519821 13.5290506847393
    vertex 3.38395977905748e-014 -1.41853727501489 13.7298381784666
  endloop
endfacet
facet normal -1.0 -2.09449407802398e-016 1.54381637146379e-015
  outer loop
    vertex 1.19345007921806e-017 -1.49791956893826 -2.25121205566406
    vertex 3.38395977905748e-014 -1.41853727501489 13.7298381784666
    vertex 1.80276458578727e-017 -1.19287835425763 -2.40182463655478
  endloop
endfacet
facet normal -1.0 -2.09449407802398e-016 1.54381637146379e-015
  outer loop
    vertex 1.80276458578727e-017 -1.19287835425763 -2.40182463655478
    vertex 3.38395977905748e-014 -1.41853727501489 13.7298381784666
    vertex 3.38395977905748e-014 -1.09440034459324 13.8896848231118
  endloop
endfacet
facet normal -1.0 -2.09449407802398e-016 1.54381637146379e-015
  outer loop
    vertex 1.80276458578727e-017 -1.19287835425763 -2.40182463655478
    vertex 3.38395977905748e-014 -1.09440034459324 13.8896848231118
    vertex 2.60863652719372e-017 -0.870772839109717 -2.51128846294369
  endloop
endfacet
facet normal -1.0 -2.09449407802398e-016 1.54381637146379e-015
  outer loop
    vertex 2.60863652719372e-017 -0.870772839109717 -2.51128846294369
    vertex 3.38395977905748e-014 -1.09440034459324 13.8896848231118
    vertex 3.38395977905748e-014 -0.752172276680524 14.0058555982674
  endloop
endfacet
facet normal -1.0 -2.09449407802398e-016 1.54381637146379e-015
  outer loop
    vertex 2.60863652719372e-017 -0.870772839109717 -2.51128846294369
    vertex 3.38395977905748e-014 -0.752172276680524 14.0058555982674
    vertex 3.597248213026e-017 -0.537125928635455 -2.57772663952449
  endloop
endfacet
facet normal -1.0 -2.09449407802398e-016 1.54381637146379e-015
  outer loop
    vertex 3.597248213026e-017 -0.537125928635455 -2.57772663952449
    vertex 3.38395977905748e-014 -0.752172276680524 14.0058555982674
    vertex 0.0 -0.39770868840227 14.1
  endloop
endfacet
facet normal -1.0 -2.09449407802398e-016 1.54381637146379e-015
  outer loop
    vertex 3.597248213026e-017 -0.537125928635455 -2.57772663952449
    vertex 0.0 -0.39770868840227 14.1
    vertex 4.75164864957151e-017 -0.197658419749069 -2.6
  endloop
endfacet
facet normal -1.0 -2.09449407802398e-016 1.54381637146379e-015
  outer loop
    vertex 4.75164864957151e-017 -0.197658419749069 -2.6
    vertex 0.0 -0.39770868840227 14.1
    vertex 0.0 0.0 11.3
  endloop
endfacet
facet normal -1.0 -2.09449407802398e-016 1.54381637146379e-015
  outer loop
    vertex 0.0 0.0 11.3
    vertex 0.0 -0.39770868840227 14.1
    vertex 0.0 60.0 14.1
  endloop
endfacet
facet normal -1.0 -2.09449407802398e-016 1.54381637146379e-015
  outer loop
    vertex 4.75164864957151e-017 -0.197658419749069 -2.6
    vertex 0.0 0.0 11.3
    vertex 7.16999814595789e-019 -1.28548129676479e-017 0.2
  endloop
endfacet
facet normal -1.0 -2.09449407802398e-016 1.54381637146379e-015
  outer loop
    vertex 0.0 0.0 11.3
    vertex 0.0 60.0 14.1
    vertex 0.0 59.1 11.3
  endloop
endfacet
facet normal -1.0 -2.09449407802398e-016 1.54381637146379e-015
  outer loop
    vertex 7.16999814595789e-019 -1.28548129676479e-017 0.2
    vertex 4.75164864957152e-017 60.0 -2.6000000000002
    vertex 4.75164864957151e-017 -0.197658419749069 -2.6
  endloop
endfacet
facet normal -1.0 -2.09449407802398e-016 1.54381637146379e-015
  outer loop
    vertex 4.75164864957152e-017 60.0 -2.6000000000002
    vertex 7.16999814595789e-019 -1.28548129676479e-017 0.2
    vertex 0.0 59.1 0.2
  endloop
endfacet
facet normal 1.99300340654452e-009 0.952028561285264 0.306009180413121
  outer loop
    vertex 0.0 59.1 0.2
    vertex 35.5826223261789 59.9999999255103 -2.6
    vertex 4.75164864957152e-017 60.0 -2.6000000000002
  endloop
endfacet
facet normal 1.99300340654452e-009 0.952028561285264 0.306009180413121
  outer loop
    vertex 35.5826223261789 59.9999999255103 -2.6
    vertex 0.0 59.1 0.2
    vertex 35.5826223261789 59.0999999255103 0.200000000000001
  endloop
endfacet
facet normal 4.72509382126611e-019 2.47896396326534e-016 -1.0
  outer loop
    vertex 35.5826223261789 59.0999999255155 11.3
    vertex 0.0 0.0 11.3
    vertex 0.0 59.1 11.3
  endloop
endfacet
facet normal 4.72509382126611e-019 2.47896396326534e-016 -1.0
  outer loop
    vertex 0.0 0.0 11.3
    vertex 35.5826223261789 59.0999999255155 11.3
    vertex 35.9233640986414 56.5118094170675 11.3
  endloop
endfacet
facet normal 4.72509382126611e-019 2.47896396326534e-016 -1.0
  outer loop
    vertex 0.0 0.0 11.3
    vertex 35.9233640986414 56.5118094170675 11.3
    vertex 36.9223683504227 54.0999998924924 11.3
  endloop
endfacet
facet normal 4.72509382126611e-019 2.47896396326534e-016 -1.0
  outer loop
    vertex 0.0 0.0 11.3
    vertex 36.9223683504227 54.0999998924924 11.3
    vertex 38.5115545933389 52.0289321091414 11.3
  endloop
endfacet
facet normal 4.72509382126611e-019 2.47896396326534e-016 -1.0
  outer loop
    vertex 0.0 0.0 11.3
    vertex 38.5115545933389 52.0289321091414 11.3
    vertex 91.0 0.0 11.3
  endloop
endfacet
facet normal 4.72509382126611e-019 2.47896396326534e-016 -1.0
  outer loop
    vertex 91.0 0.0 11.3
    vertex 38.5115545933389 52.0289321091414 11.3
    vertex 40.5826224122108 50.4397459125174 11.3
  endloop
endfacet
facet normal 4.72509382126611e-019 2.47896396326534e-016 -1.0
  outer loop
    vertex 91.0 0.0 11.3
    vertex 40.5826224122108 50.4397459125174 11.3
    vertex 42.9944319591154 49.4407417146441 11.3
  endloop
endfacet
facet normal 4.72509382126611e-019 2.47896396326534e-016 -1.0
  outer loop
    vertex 91.0 0.0 11.3
    vertex 42.9944319591154 49.4407417146441 11.3
    vertex 45.5826224006847 49.1000000000322 11.3
  endloop
endfacet
facet normal 4.72509382126611e-019 2.47896396326534e-016 -1.0
  outer loop
    vertex 91.0 0.0 11.3
    vertex 45.5826224006847 49.1000000000322 11.3
    vertex 48.1708128371767 49.4407417532111 11.3
  endloop
endfacet
facet normal 4.72509382126611e-019 2.47896396326534e-016 -1.0
  outer loop
    vertex 91.0 0.0 11.3
    vertex 48.1708128371767 49.4407417532111 11.3
    vertex 50.5826223691949 50.4397459870232 11.3
  endloop
endfacet
facet normal 4.72509382126611e-019 2.47896396326534e-016 -1.0
  outer loop
    vertex 91.0 0.0 11.3
    vertex 50.5826223691949 50.4397459870232 11.3
    vertex 52.6536901643862 52.0289322145086 11.3
  endloop
endfacet
facet normal 4.72509382126611e-019 2.47896396326534e-016 -1.0
  outer loop
    vertex 91.0 0.0 11.3
    vertex 52.6536901643862 52.0289322145086 11.3
    vertex 54.242876376441 54.1000000215402 11.3
  endloop
endfacet
facet normal 4.72509382126611e-019 2.47896396326534e-016 -1.0
  outer loop
    vertex 91.0 0.0 11.3
    vertex 54.242876376441 54.1000000215402 11.3
    vertex 55.2418805922835 56.5118095610016 11.3
  endloop
endfacet
facet normal 4.72509382126611e-019 2.47896396326534e-016 -1.0
  outer loop
    vertex 91.0 0.0 11.3
    vertex 55.2418805922835 56.5118095610016 11.3
    vertex 55.5826223261789 59.1000000000162 11.3
  endloop
endfacet
facet normal 4.72509382126611e-019 2.47896396326534e-016 -1.0
  outer loop
    vertex 91.0 0.0 11.3
    vertex 55.5826223261789 59.1000000000162 11.3
    vertex 91.0 59.1 11.3
  endloop
endfacet
facet normal 2.98943596772916e-009 0.952028564974807 -0.306009168934542
  outer loop
    vertex 0.0 60.0 14.1
    vertex 35.5826223261789 59.0999999255155 11.3
    vertex 0.0 59.1 11.3
  endloop
endfacet
facet normal 2.98943596772916e-009 0.952028564974807 -0.306009168934542
  outer loop
    vertex 35.5826223261789 59.0999999255155 11.3
    vertex 0.0 60.0 14.1
    vertex 35.5826223261789 59.9999998510207 14.1
  endloop
endfacet
facet normal -0.492922963580356 -0.828334306271483 -0.266250312730143
  outer loop
    vertex 40.5826223398399 51.3397458955532 -2.59999999999999
    vertex 38.5115545254676 52.028932118265 0.200000000000009
    vertex 38.5115545254676 52.9289321182651 -2.59999999999999
  endloop
endfacet
facet normal -0.67666123284613 -0.700973383970322 -0.225312873419053
  outer loop
    vertex 38.5115545254676 52.028932118265 0.200000000000009
    vertex 40.5826223398399 51.3397458955532 -2.59999999999999
    vertex 40.5826223398399 50.4397458955531 0.20000000000001
  endloop
endfacet
facet normal -0.253520474161017 -0.920925808010066 -0.296011866860401
  outer loop
    vertex 42.9944318903906 50.3407416743113 -2.59999999999999
    vertex 40.5826223398399 50.4397458955531 0.20000000000001
    vertex 40.5826223398399 51.3397458955532 -2.59999999999999
  endloop
endfacet
facet normal -0.471097223544314 -0.839766583506427 -0.269924973269947
  outer loop
    vertex 40.5826223398399 50.4397458955531 0.20000000000001
    vertex 42.9944318903906 50.3407416743113 -2.59999999999999
    vertex 42.9944318903906 49.4407416743113 0.200000000000011
  endloop
endfacet
facet normal 6.50983215090805e-013 0.952028561284466 -0.306009180415604
  outer loop
    vertex 55.5826223261789 60.0000000000323 14.1
    vertex 91.0 59.1 11.3
    vertex 55.5826223261789 59.1000000000162 11.3
  endloop
endfacet
facet normal 6.50983215090805e-013 0.952028561284466 -0.306009180415604
  outer loop
    vertex 91.0 59.1 11.3
    vertex 55.5826223261789 60.0000000000323 14.1
    vertex 91.0 60.0 14.1
  endloop
endfacet
facet normal -0.843244467448699 -0.511744149184047 -0.164489190809171
  outer loop
    vertex 36.9223682962217 54.0999999276236 0.200000000000007
    vertex 38.5115545254676 52.9289321182651 -2.59999999999999
    vertex 38.5115545254676 52.028932118265 0.200000000000009
  endloop
endfacet
facet normal -0.7028828713222 -0.677183255441244 -0.217666046391849
  outer loop
    vertex 38.5115545254676 52.9289321182651 -2.59999999999999
    vertex 36.9223682962217 54.0999999276236 0.200000000000007
    vertex 36.9223682962217 54.9999999276237 -2.59999999999999
  endloop
endfacet
facet normal 0.253520467366042 0.920925809705487 -0.29601186740534
  outer loop
    vertex 42.9944319591153 50.3407417146441 14.1
    vertex 45.5826224006847 49.1000000000322 11.3
    vertex 42.9944319591154 49.4407417146441 11.3
  endloop
endfacet
facet normal -6.91927770211606e-009 0.952028561285262 -0.306009180413129
  outer loop
    vertex 45.5826224006847 49.1000000000322 11.3
    vertex 42.9944319591153 50.3407417146441 14.1
    vertex 45.5826224006847 50.0000000000323 14.1
  endloop
endfacet
facet normal 0.241273221594422 -0.923902999132672 -0.296968821149802
  outer loop
    vertex 48.170812792441 49.4407416824767 0.200000000000011
    vertex 45.5826223419533 49.9999999412847 -2.59999999999999
    vertex 48.170812792441 50.3407416824768 -2.59999999999999
  endloop
endfacet
facet normal 1.54143515115519e-009 -0.952028561285259 -0.306009180413138
  outer loop
    vertex 45.5826223419533 49.9999999412847 -2.59999999999999
    vertex 48.170812792441 49.4407416824767 0.200000000000011
    vertex 45.5826223419533 49.0999999412847 0.200000000000011
  endloop
endfacet
facet normal -0.95531344448489 -0.281414590713648 -0.0904546898722483
  outer loop
    vertex 35.923364067371 56.5118094750226 0.200000000000004
    vertex 36.9223682962217 54.9999999276237 -2.59999999999999
    vertex 36.9223682962217 54.0999999276236 0.200000000000007
  endloop
endfacet
facet normal -0.866892838114923 -0.474581040503234 -0.152543905876051
  outer loop
    vertex 36.9223682962217 54.9999999276237 -2.59999999999999
    vertex 35.923364067371 56.5118094750226 0.200000000000004
    vertex 35.923364067371 57.4118094750226 -2.6
  endloop
endfacet
facet normal 0.955313441121229 0.281414601269332 -0.0904546925567694
  outer loop
    vertex 35.9233640986414 56.5118094170675 11.3
    vertex 36.9223683504227 54.9999998924924 14.1
    vertex 36.9223683504227 54.0999998924924 11.3
  endloop
endfacet
facet normal 0.866892832444864 0.474581049890577 -0.1525439088934
  outer loop
    vertex 36.9223683504227 54.9999998924924 14.1
    vertex 35.9233640986414 56.5118094170675 11.3
    vertex 35.9233640986414 57.4118094170674 14.1
  endloop
endfacet
facet normal -7.28052914147036e-009 0.952028561285262 -0.306009180413129
  outer loop
    vertex 45.5826224006847 50.0000000000323 14.1
    vertex 48.1708128371767 49.4407417532111 11.3
    vertex 45.5826224006847 49.1000000000322 11.3
  endloop
endfacet
facet normal -0.241273225823407 0.923902998131708 -0.296968820828061
  outer loop
    vertex 48.1708128371767 49.4407417532111 11.3
    vertex 45.5826224006847 50.0000000000323 14.1
    vertex 48.1708128371767 50.3407417532112 14.1
  endloop
endfacet
facet normal 0.702882873609031 -0.6771832532899 -0.217666045700329
  outer loop
    vertex 52.6536901491985 52.9289321405734 -2.59999999999999
    vertex 54.2428763719104 54.0999999549457 0.200000000000006
    vertex 52.6536901491985 52.0289321405734 0.200000000000008
  endloop
endfacet
facet normal 0.843244469158196 -0.511744146630947 -0.164489189988511
  outer loop
    vertex 54.2428763719104 54.0999999549457 0.200000000000006
    vertex 52.6536901491985 52.9289321405734 -2.59999999999999
    vertex 54.2428763719105 54.9999999549457 -2.59999999999999
  endloop
endfacet
facet normal 0.866892839748869 -0.474581037798082 -0.152543905006515
  outer loop
    vertex 54.2428763719105 54.9999999549457 -2.59999999999999
    vertex 55.2418805931522 56.5118095054963 0.200000000000003
    vertex 54.2428763719104 54.0999999549457 0.200000000000006
  endloop
endfacet
facet normal 0.955313445438308 -0.281414587793082 -0.09045468888918
  outer loop
    vertex 55.2418805931522 56.5118095054963 0.200000000000003
    vertex 54.2428763719105 54.9999999549457 -2.59999999999999
    vertex 55.2418805931523 57.4118095054964 -2.6
  endloop
endfacet
facet normal 0.67666123511969 -0.700973381981137 -0.225312872779656
  outer loop
    vertex 52.6536901491985 52.0289321405734 0.200000000000008
    vertex 50.5826223398399 51.3397459113275 -2.59999999999999
    vertex 52.6536901491985 52.9289321405734 -2.59999999999999
  endloop
endfacet
facet normal 0.492922966320285 -0.828334304793698 -0.266250312255125
  outer loop
    vertex 50.5826223398399 51.3397459113275 -2.59999999999999
    vertex 52.6536901491985 52.0289321405734 0.200000000000008
    vertex 50.5826223398399 50.4397459113275 0.200000000000009
  endloop
endfacet
facet normal -0.492922969209486 0.828334303235398 -0.266250311754243
  outer loop
    vertex 50.5826223691949 51.3397459870232 14.1
    vertex 52.6536901643862 52.0289322145086 11.3
    vertex 50.5826223691949 50.4397459870232 11.3
  endloop
endfacet
facet normal -0.676661236727018 0.700973380574849 -0.225312872327637
  outer loop
    vertex 52.6536901643862 52.0289322145086 11.3
    vertex 50.5826223691949 51.3397459870232 14.1
    vertex 52.6536901643862 52.9289322145086 14.1
  endloop
endfacet
facet normal -0.253520481532244 0.920925806170873 -0.296011866269221
  outer loop
    vertex 48.1708128371767 50.3407417532112 14.1
    vertex 50.5826223691949 50.4397459870232 11.3
    vertex 48.1708128371767 49.4407417532111 11.3
  endloop
endfacet
facet normal -0.471097229092197 0.839766580685587 -0.269924972363233
  outer loop
    vertex 50.5826223691949 50.4397459870232 11.3
    vertex 48.1708128371767 50.3407417532112 14.1
    vertex 50.5826223691949 51.3397459870232 14.1
  endloop
endfacet
facet normal 0.990573434713946 0.130411479237872 -0.0419179737344923
  outer loop
    vertex 35.5826223261789 59.0999999255155 11.3
    vertex 35.9233640986414 57.4118094170674 14.1
    vertex 35.9233640986414 56.5118094170675 11.3
  endloop
endfacet
facet normal 0.969386524616793 0.233760849536718 -0.0751374148826523
  outer loop
    vertex 35.9233640986414 57.4118094170674 14.1
    vertex 35.5826223261789 59.0999999255155 11.3
    vertex 35.5826223261789 59.9999998510207 14.1
  endloop
endfacet
facet normal -3.2904232429921e-018 6.2381489554374e-017 -1.0
  outer loop
    vertex 35.5826223261789 59.0999999255103 0.200000000000001
    vertex 7.16999814595789e-019 -1.28548129676479e-017 0.2
    vertex 0.0 59.1 0.2
  endloop
endfacet
facet normal -3.2904232429921e-018 6.2381489554374e-017 -1.0
  outer loop
    vertex 7.16999814595789e-019 -1.28548129676479e-017 0.2
    vertex 35.5826223261789 59.0999999255103 0.200000000000001
    vertex 35.923364067371 56.5118094750226 0.200000000000004
  endloop
endfacet
facet normal -3.2904232429921e-018 6.2381489554374e-017 -1.0
  outer loop
    vertex 7.16999814595789e-019 -1.28548129676479e-017 0.2
    vertex 35.923364067371 56.5118094750226 0.200000000000004
    vertex 36.9223682962217 54.0999999276236 0.200000000000007
  endloop
endfacet
facet normal -3.2904232429921e-018 6.2381489554374e-017 -1.0
  outer loop
    vertex 7.16999814595789e-019 -1.28548129676479e-017 0.2
    vertex 36.9223682962217 54.0999999276236 0.200000000000007
    vertex 38.5115545254676 52.028932118265 0.200000000000009
  endloop
endfacet
facet normal -3.2904232429921e-018 6.2381489554374e-017 -1.0
  outer loop
    vertex 7.16999814595789e-019 -1.28548129676479e-017 0.2
    vertex 38.5115545254676 52.028932118265 0.200000000000009
    vertex 91.0 -1.28548129676479e-017 0.2
  endloop
endfacet
facet normal -3.2904232429921e-018 6.2381489554374e-017 -1.0
  outer loop
    vertex 91.0 -1.28548129676479e-017 0.2
    vertex 38.5115545254676 52.028932118265 0.200000000000009
    vertex 40.5826223398399 50.4397458955531 0.20000000000001
  endloop
endfacet
facet normal -3.2904232429921e-018 6.2381489554374e-017 -1.0
  outer loop
    vertex 91.0 -1.28548129676479e-017 0.2
    vertex 40.5826223398399 50.4397458955531 0.20000000000001
    vertex 42.9944318903906 49.4407416743113 0.200000000000011
  endloop
endfacet
facet normal -3.2904232429921e-018 6.2381489554374e-017 -1.0
  outer loop
    vertex 91.0 -1.28548129676479e-017 0.2
    vertex 42.9944318903906 49.4407416743113 0.200000000000011
    vertex 45.5826223419533 49.0999999412847 0.200000000000011
  endloop
endfacet
facet normal -3.2904232429921e-018 6.2381489554374e-017 -1.0
  outer loop
    vertex 91.0 -1.28548129676479e-017 0.2
    vertex 45.5826223419533 49.0999999412847 0.200000000000011
    vertex 48.170812792441 49.4407416824767 0.200000000000011
  endloop
endfacet
facet normal -3.2904232429921e-018 6.2381489554374e-017 -1.0
  outer loop
    vertex 91.0 -1.28548129676479e-017 0.2
    vertex 48.170812792441 49.4407416824767 0.200000000000011
    vertex 50.5826223398399 50.4397459113275 0.200000000000009
  endloop
endfacet
facet normal -3.2904232429921e-018 6.2381489554374e-017 -1.0
  outer loop
    vertex 91.0 -1.28548129676479e-017 0.2
    vertex 50.5826223398399 50.4397459113275 0.200000000000009
    vertex 52.6536901491985 52.0289321405734 0.200000000000008
  endloop
endfacet
facet normal -3.2904232429921e-018 6.2381489554374e-017 -1.0
  outer loop
    vertex 91.0 -1.28548129676479e-017 0.2
    vertex 52.6536901491985 52.0289321405734 0.200000000000008
    vertex 54.2428763719104 54.0999999549457 0.200000000000006
  endloop
endfacet
facet normal -3.2904232429921e-018 6.2381489554374e-017 -1.0
  outer loop
    vertex 91.0 -1.28548129676479e-017 0.2
    vertex 54.2428763719104 54.0999999549457 0.200000000000006
    vertex 55.2418805931522 56.5118095054963 0.200000000000003
  endloop
endfacet
facet normal -3.2904232429921e-018 6.2381489554374e-017 -1.0
  outer loop
    vertex 91.0 -1.28548129676479e-017 0.2
    vertex 55.2418805931522 56.5118095054963 0.200000000000003
    vertex 55.5826223261789 59.0999999570591 0.2
  endloop
endfacet
facet normal -3.2904232429921e-018 6.2381489554374e-017 -1.0
  outer loop
    vertex 91.0 -1.28548129676479e-017 0.2
    vertex 55.5826223261789 59.0999999570591 0.2
    vertex 91.0 59.1 0.2
  endloop
endfacet
facet normal 0.702882864300523 0.67718326204693 -0.217666048515086
  outer loop
    vertex 38.5115545933388 52.9289321091415 14.1
    vertex 40.5826224122108 50.4397459125174 11.3
    vertex 38.5115545933389 52.0289321091414 11.3
  endloop
endfacet
facet normal 0.471097216570645 0.839766587052225 -0.269924974409646
  outer loop
    vertex 40.5826224122108 50.4397459125174 11.3
    vertex 38.5115545933388 52.9289321091415 14.1
    vertex 40.5826224122108 51.3397459125174 14.1
  endloop
endfacet
facet normal -1.21686131395552e-009 0.952028561515946 0.306009179695443
  outer loop
    vertex 55.5826223261789 59.9999999524016 -2.6000000000002
    vertex 91.0 59.1 0.2
    vertex 91.0 60.0 -2.6000000000002
  endloop
endfacet
facet normal -1.21686131395552e-009 0.952028561515946 0.306009179695443
  outer loop
    vertex 91.0 59.1 0.2
    vertex 55.5826223261789 59.9999999524016 -2.6000000000002
    vertex 55.5826223261789 59.0999999570591 0.2
  endloop
endfacet
facet normal -0.990573436198953 -0.130411468508977 -0.0419179720207426
  outer loop
    vertex 35.5826223261789 59.0999999255103 0.200000000000001
    vertex 35.923364067371 57.4118094750226 -2.6
    vertex 35.923364067371 56.5118094750226 0.200000000000004
  endloop
endfacet
facet normal -0.969386527402044 -0.233760838765151 -0.0751374124602302
  outer loop
    vertex 35.923364067371 57.4118094750226 -2.6
    vertex 35.5826223261789 59.0999999255103 0.200000000000001
    vertex 35.5826223261789 59.9999999255103 -2.6
  endloop
endfacet
facet normal 0.969386528202856 -0.233760835774176 -0.0751374114338053
  outer loop
    vertex 55.2418805931523 57.4118095054964 -2.6
    vertex 55.5826223261789 59.0999999570591 0.2
    vertex 55.2418805931522 56.5118095054963 0.200000000000003
  endloop
endfacet
facet normal 0.990573436639873 -0.130411465505081 -0.0419179709467164
  outer loop
    vertex 55.5826223261789 59.0999999570591 0.2
    vertex 55.2418805931523 57.4118095054964 -2.6
    vertex 55.5826223261789 59.9999999524016 -2.6000000000002
  endloop
endfacet
facet normal 0.492922956268207 0.828334310215321 -0.266250313997784
  outer loop
    vertex 40.5826224122108 51.3397459125174 14.1
    vertex 42.9944319591154 49.4407417146441 11.3
    vertex 40.5826224122108 50.4397459125174 11.3
  endloop
endfacet
facet normal 0.241273212303484 0.923903001331761 -0.296968821856642
  outer loop
    vertex 42.9944319591154 49.4407417146441 11.3
    vertex 40.5826224122108 51.3397459125174 14.1
    vertex 42.9944319591153 50.3407417146441 14.1
  endloop
endfacet
facet normal 0.843244461630398 0.51174415787359 -0.164489193602226
  outer loop
    vertex 36.9223683504227 54.0999998924924 11.3
    vertex 38.5115545933388 52.9289321091415 14.1
    vertex 38.5115545933389 52.0289321091414 11.3
  endloop
endfacet
facet normal 0.702882864300523 0.67718326204693 -0.217666048515086
  outer loop
    vertex 38.5115545933388 52.9289321091415 14.1
    vertex 36.9223683504227 54.0999998924924 11.3
    vertex 36.9223683504227 54.9999998924924 14.1
  endloop
endfacet
facet normal -0.702882875101715 0.677183251885649 -0.217666045248966
  outer loop
    vertex 52.6536901643862 52.9289322145086 14.1
    vertex 54.242876376441 54.1000000215402 11.3
    vertex 52.6536901643862 52.0289322145086 11.3
  endloop
endfacet
facet normal -0.843244469704692 0.511744145814758 -0.164489189726184
  outer loop
    vertex 54.242876376441 54.1000000215402 11.3
    vertex 52.6536901643862 52.9289322145086 14.1
    vertex 54.2428763764409 55.0000000215403 14.1
  endloop
endfacet
facet normal -0.866892840162317 0.474581037113572 -0.152543904786518
  outer loop
    vertex 54.2428763764409 55.0000000215403 14.1
    vertex 55.2418805922835 56.5118095610016 11.3
    vertex 54.242876376441 54.1000000215402 11.3
  endloop
endfacet
facet normal -0.955313445381749 0.281414587954148 -0.0904546889854265
  outer loop
    vertex 55.2418805922835 56.5118095610016 11.3
    vertex 54.2428763764409 55.0000000215403 14.1
    vertex 55.2418805922835 57.4118095610016 14.1
  endloop
endfacet
facet normal -0.969386528098585 0.233760836147073 -0.0751374116189369
  outer loop
    vertex 55.2418805922835 57.4118095610016 14.1
    vertex 55.5826223261789 59.1000000000162 11.3
    vertex 55.2418805922835 56.5118095610016 11.3
  endloop
endfacet
facet normal -0.990573436514631 0.130411466335584 -0.0419179713225342
  outer loop
    vertex 55.5826223261789 59.1000000000162 11.3
    vertex 55.2418805922835 57.4118095610016 14.1
    vertex 55.5826223261789 60.0000000000323 14.1
  endloop
endfacet
facet normal 1.46494996793217e-009 -0.952028561285258 -0.306009180413138
  outer loop
    vertex 45.5826223419533 49.0999999412847 0.200000000000011
    vertex 42.9944318903906 50.3407416743113 -2.59999999999999
    vertex 45.5826223419533 49.9999999412847 -2.59999999999999
  endloop
endfacet
facet normal -0.253520474161017 -0.920925808010066 -0.296011866860401
  outer loop
    vertex 42.9944318903906 50.3407416743113 -2.59999999999999
    vertex 45.5826223419533 49.0999999412847 0.200000000000011
    vertex 42.9944318903906 49.4407416743113 0.200000000000011
  endloop
endfacet
facet normal 0.471097226195381 -0.839766582158485 -0.269924972836664
  outer loop
    vertex 50.5826223398399 50.4397459113275 0.200000000000009
    vertex 48.170812792441 50.3407416824768 -2.59999999999999
    vertex 50.5826223398399 51.3397459113275 -2.59999999999999
  endloop
endfacet
facet normal 0.253520477160295 -0.920925807261718 -0.296011866619852
  outer loop
    vertex 48.170812792441 50.3407416824768 -2.59999999999999
    vertex 50.5826223398399 50.4397459113275 0.200000000000009
    vertex 48.170812792441 49.4407416824767 0.200000000000011
  endloop
endfacet
facet normal 1.0 -2.53292347415372e-016 -1.87552520545182e-015
  outer loop
    vertex 91.0 -2.77402931123639 -0.153237784560383
    vertex 91.0 -2.77636278976168 11.6977086884023
    vertex 91.0 -2.8 11.3370745500298
  endloop
endfacet
facet normal 1.0 -2.53292347415372e-016 -1.87552520545182e-015
  outer loop
    vertex 91.0 -2.77636278976168 11.6977086884023
    vertex 91.0 -2.77402931123639 -0.153237784560383
    vertex 91.0 -2.70585559826736 12.0521722766805
  endloop
endfacet
facet normal 1.0 -2.53292347415372e-016 -1.87552520545182e-015
  outer loop
    vertex 91.0 -2.70585559826736 12.0521722766805
    vertex 91.0 -2.77402931123639 -0.153237784560383
    vertex 91.0 -2.70809915804386 -0.670922134704906
  endloop
endfacet
facet normal 1.0 -2.53292347415372e-016 -1.87552520545182e-015
  outer loop
    vertex 91.0 -2.70585559826736 12.0521722766805
    vertex 91.0 -2.70809915804386 -0.670922134704906
    vertex 91.0 -2.59916799072083 -0.993208176850765
  endloop
endfacet
facet normal 1.0 -2.53292347415372e-016 -1.87552520545182e-015
  outer loop
    vertex 91.0 -2.70585559826736 12.0521722766805
    vertex 91.0 -2.59916799072083 -0.993208176850765
    vertex 91.0 -2.5896848231118 12.3944003445933
  endloop
endfacet
facet normal 1.0 -2.53292347415372e-016 -1.87552520545182e-015
  outer loop
    vertex 91.0 -2.5896848231118 12.3944003445933
    vertex 91.0 -2.59916799072083 -0.993208176850765
    vertex 91.0 -2.4490599141809 -1.29849796956235
  endloop
endfacet
facet normal 1.0 -2.53292347415372e-016 -1.87552520545182e-015
  outer loop
    vertex 91.0 -2.5896848231118 12.3944003445933
    vertex 91.0 -2.4490599141809 -1.29849796956235
    vertex 91.0 -2.42983817846654 12.7185372750149
  endloop
endfacet
facet normal 1.0 -2.53292347415372e-016 -1.87552520545182e-015
  outer loop
    vertex 91.0 -2.42983817846654 12.7185372750149
    vertex 91.0 -2.4490599141809 -1.29849796956235
    vertex 91.0 -2.26034872064006 -1.58155693445976
  endloop
endfacet
facet normal 1.0 -2.53292347415372e-016 -1.87552520545182e-015
  outer loop
    vertex 91.0 -2.42983817846654 12.7185372750149
    vertex 91.0 -2.26034872064006 -1.58155693445976
    vertex 91.0 -2.22905068473932 13.0190369951982
  endloop
endfacet
facet normal 1.0 -2.53292347415372e-016 -1.87552520545182e-015
  outer loop
    vertex 91.0 -2.22905068473932 13.0190369951982
    vertex 91.0 -2.26034872064006 -1.58155693445976
    vertex 91.0 -2.03627010142288 -1.83753166873275
  endloop
endfacet
facet normal 1.0 -2.53292347415372e-016 -1.87552520545182e-015
  outer loop
    vertex 91.0 -2.22905068473932 13.0190369951982
    vertex 91.0 -2.03627010142288 -1.83753166873275
    vertex 91.0 -1.99075787161662 13.2907578716166
  endloop
endfacet
facet normal 1.0 -2.53292347415372e-016 -1.87552520545182e-015
  outer loop
    vertex 91.0 -1.99075787161662 13.2907578716166
    vertex 91.0 -2.03627010142288 -1.83753166873275
    vertex 91.0 -1.78066616695544 -2.06203316285064
  endloop
endfacet
facet normal 1.0 -2.53292347415372e-016 -1.87552520545182e-015
  outer loop
    vertex 91.0 -1.99075787161662 13.2907578716166
    vertex 91.0 -1.78066616695544 -2.06203316285064
    vertex 91.0 -1.71903699519821 13.5290506847393
  endloop
endfacet
facet normal 1.0 -2.53292347415372e-016 -1.87552520545182e-015
  outer loop
    vertex 91.0 -1.71903699519821 13.5290506847393
    vertex 91.0 -1.78066616695544 -2.06203316285064
    vertex 91.0 -1.49791956893826 -2.25121205566406
  endloop
endfacet
facet normal 1.0 -2.53292347415372e-016 -1.87552520545182e-015
  outer loop
    vertex 91.0 -1.71903699519821 13.5290506847393
    vertex 91.0 -1.49791956893826 -2.25121205566406
    vertex 91.0 -1.41853727501489 13.7298381784666
  endloop
endfacet
facet normal 1.0 -2.53292347415372e-016 -1.87552520545182e-015
  outer loop
    vertex 91.0 -1.41853727501489 13.7298381784666
    vertex 91.0 -1.49791956893826 -2.25121205566406
    vertex 91.0 -1.19287835425763 -2.40182463655478
  endloop
endfacet
facet normal 1.0 -2.53292347415372e-016 -1.87552520545182e-015
  outer loop
    vertex 91.0 -1.41853727501489 13.7298381784666
    vertex 91.0 -1.19287835425763 -2.40182463655478
    vertex 91.0 -1.09440034459324 13.8896848231118
  endloop
endfacet
facet normal 1.0 -2.53292347415372e-016 -1.87552520545182e-015
  outer loop
    vertex 91.0 -1.09440034459324 13.8896848231118
    vertex 91.0 -1.19287835425763 -2.40182463655478
    vertex 91.0 -0.870772839109717 -2.51128846294369
  endloop
endfacet
facet normal 1.0 -2.53292347415372e-016 -1.87552520545182e-015
  outer loop
    vertex 91.0 -1.09440034459324 13.8896848231118
    vertex 91.0 -0.870772839109717 -2.51128846294369
    vertex 91.0 -0.752172276680524 14.0058555982674
  endloop
endfacet
facet normal 1.0 -2.53292347415372e-016 -1.87552520545182e-015
  outer loop
    vertex 91.0 -0.752172276680524 14.0058555982674
    vertex 91.0 -0.870772839109717 -2.51128846294369
    vertex 91.0 -0.537125928635455 -2.57772663952449
  endloop
endfacet
facet normal 1.0 -2.53292347415372e-016 -1.87552520545182e-015
  outer loop
    vertex 91.0 -0.752172276680524 14.0058555982674
    vertex 91.0 -0.537125928635455 -2.57772663952449
    vertex 91.0 -0.397708688402265 14.0763627897617
  endloop
endfacet
facet normal 1.0 -2.53292347415372e-016 -1.87552520545182e-015
  outer loop
    vertex 91.0 -0.397708688402265 14.0763627897617
    vertex 91.0 -0.537125928635455 -2.57772663952449
    vertex 91.0 -1.28548129676479e-017 0.2
  endloop
endfacet
facet normal 1.0 -2.53292347415372e-016 -1.87552520545182e-015
  outer loop
    vertex 91.0 -1.28548129676479e-017 0.2
    vertex 91.0 -0.537125928635455 -2.57772663952449
    vertex 91.0 60.0 -2.6000000000002
  endloop
endfacet
facet normal 1.0 -2.53292347415372e-016 -1.87552520545182e-015
  outer loop
    vertex 91.0 -0.397708688402265 14.0763627897617
    vertex 91.0 -1.28548129676479e-017 0.2
    vertex 91.0 -0.0370745500297796 14.1
  endloop
endfacet
facet normal 1.0 -2.53292347415372e-016 -1.87552520545182e-015
  outer loop
    vertex 91.0 -1.28548129676479e-017 0.2
    vertex 91.0 60.0 -2.6000000000002
    vertex 91.0 59.1 0.2
  endloop
endfacet
facet normal 1.0 -2.53292347415372e-016 -1.87552520545182e-015
  outer loop
    vertex 91.0 -0.0370745500297796 14.1
    vertex 91.0 0.0 11.3
    vertex 91.0 60.0 14.1
  endloop
endfacet
facet normal 1.0 -2.53292347415372e-016 -1.87552520545182e-015
  outer loop
    vertex 91.0 0.0 11.3
    vertex 91.0 -0.0370745500297796 14.1
    vertex 91.0 -1.28548129676479e-017 0.2
  endloop
endfacet
facet normal 1.0 -2.53292347415372e-016 -1.87552520545182e-015
  outer loop
    vertex 91.0 60.0 14.1
    vertex 91.0 0.0 11.3
    vertex 91.0 59.1 11.3
  endloop
endfacet
endsolid makerclip
