solid simpbase
facet normal -1.0 0.0 0.0
  outer loop
    vertex 22.49193551265509 119.39218239595648 3.0
    vertex 22.49193551265509 103.01124007959639 0.0
    vertex 22.49193551265509 103.01124007959639 3.0
  endloop
endfacet
facet normal -1.0 0.0 0.0
  outer loop
    vertex 22.49193551265509 103.01124007959639 0.0
    vertex 22.49193551265509 119.39218239595648 3.0
    vertex 22.49193551265509 119.39218239595648 0.0
  endloop
endfacet
facet normal 0.754709580222772 0.0 -0.6560590289905073
  outer loop
    vertex 124.94638351265509 99.4865593959565 6.599726000000036
    vertex 171.78917794275117 39.4865593959565 60.48619681833099
    vertex 124.94638351265509 39.4865593959565 6.5997260000000475
  endloop
endfacet
facet normal 0.754709580222772 0.0 -0.6560590289905073
  outer loop
    vertex 171.78917794275117 39.4865593959565 60.48619681833099
    vertex 124.94638351265509 99.4865593959565 6.599726000000036
    vertex 159.4601445588028 66.22412653174979 46.30326632186344
  endloop
endfacet
facet normal 0.754709580222772 0.0 -0.6560590289905073
  outer loop
    vertex 171.78917794275117 39.4865593959565 60.48619681833099
    vertex 159.4601445588028 66.22412653174979 46.30326632186344
    vertex 159.98230007097015 65.89445513748451 46.903937526717286
  endloop
endfacet
facet normal 0.754709580222772 0.0 -0.6560590289905073
  outer loop
    vertex 171.78917794275117 39.4865593959565 60.48619681833099
    vertex 159.98230007097015 65.89445513748451 46.903937526717286
    vertex 160.54264195663703 65.78201036423843 47.54853712923115
  endloop
endfacet
facet normal 0.754709580222772 0.0 -0.6560590289905073
  outer loop
    vertex 159.4601445588028 66.22412653174979 46.30326632186344
    vertex 124.94638351265509 99.4865593959565 6.599726000000036
    vertex 159.0117594553861 66.74855798632284 45.78745826462452
  endloop
endfacet
facet normal 0.754709580222772 0.0 -0.6560590289905073
  outer loop
    vertex 159.0117594553861 66.74855798632284 45.78745826462452
    vertex 124.94638351265509 99.4865593959565 6.599726000000036
    vertex 158.66770146452686 67.43201036423844 45.39166482168815
  endloop
endfacet
facet normal 0.754709580222772 0.0 -0.6560590289905073
  outer loop
    vertex 158.66770146452686 67.43201036423844 45.39166482168815
    vertex 124.94638351265509 99.4865593959565 6.599726000000036
    vertex 158.45141756971935 68.22790751540012 45.14285866211073
  endloop
endfacet
facet normal 0.754709580222772 0.0 -0.6560590289905073
  outer loop
    vertex 158.45141756971935 68.22790751540012 45.14285866211073
    vertex 124.94638351265509 99.4865593959565 6.599726000000036
    vertex 158.37764716096837 69.08201036423844 45.05799551449592
  endloop
endfacet
facet normal 0.754709580222772 0.0 -0.6560590289905073
  outer loop
    vertex 158.37764716096837 69.08201036423844 45.05799551449592
    vertex 124.94638351265509 99.4865593959565 6.599726000000036
    vertex 158.45141756971935 69.93611321307675 45.14285866211073
  endloop
endfacet
facet normal 0.754709580222772 0.0 -0.6560590289905073
  outer loop
    vertex 158.45141756971935 69.93611321307675 45.14285866211073
    vertex 124.94638351265509 99.4865593959565 6.599726000000036
    vertex 158.66770146452686 70.73201036423845 45.39166482168815
  endloop
endfacet
facet normal 0.754709580222772 0.0 -0.6560590289905073
  outer loop
    vertex 158.66770146452686 70.73201036423845 45.39166482168815
    vertex 124.94638351265509 99.4865593959565 6.599726000000036
    vertex 159.0117594553861 71.41546274215405 45.78745826462452
  endloop
endfacet
facet normal 0.754709580222772 0.0 -0.6560590289905073
  outer loop
    vertex 159.0117594553861 71.41546274215405 45.78745826462452
    vertex 124.94638351265509 99.4865593959565 6.599726000000036
    vertex 159.4601445588028 71.93989419672708 46.30326632186344
  endloop
endfacet
facet normal 0.754709580222772 0.0 -0.6560590289905073
  outer loop
    vertex 159.4601445588028 71.93989419672708 46.30326632186344
    vertex 124.94638351265509 99.4865593959565 6.599726000000036
    vertex 159.98230007097015 72.26956559099237 46.903937526717286
  endloop
endfacet
facet normal 0.754709580222772 0.0 -0.6560590289905073
  outer loop
    vertex 159.98230007097015 72.26956559099237 46.903937526717286
    vertex 124.94638351265509 99.4865593959565 6.599726000000036
    vertex 160.54264195663703 72.38201036423844 47.54853712923115
  endloop
endfacet
facet normal 0.754709580222772 0.0 -0.6560590289905073
  outer loop
    vertex 171.78917794275117 39.4865593959565 60.48619681833099
    vertex 161.10298384230398 65.89445513748451 48.19313673174499
    vertex 171.78917794275117 69.48655939595649 60.48619681833099
  endloop
endfacet
facet normal 0.754709580222772 0.0 -0.6560590289905073
  outer loop
    vertex 161.10298384230398 65.89445513748451 48.19313673174499
    vertex 171.78917794275117 39.4865593959565 60.48619681833099
    vertex 160.54264195663703 65.78201036423843 47.54853712923115
  endloop
endfacet
facet normal 0.754709580222772 0.0 -0.6560590289905073
  outer loop
    vertex 171.78917794275117 69.48655939595649 60.48619681833099
    vertex 161.10298384230398 65.89445513748451 48.19313673174499
    vertex 161.62513935447134 66.22412653174979 48.79380793659872
  endloop
endfacet
facet normal 0.754709580222772 0.0 -0.6560590289905073
  outer loop
    vertex 171.78917794275117 69.48655939595649 60.48619681833099
    vertex 161.62513935447134 66.22412653174979 48.79380793659872
    vertex 162.07352445788786 66.74855798632284 49.30961599383764
  endloop
endfacet
facet normal 0.754709580222772 0.0 -0.6560590289905073
  outer loop
    vertex 171.78917794275117 69.48655939595649 60.48619681833099
    vertex 162.07352445788786 66.74855798632284 49.30961599383764
    vertex 162.41758244874717 67.43201036423844 49.70540943677406
  endloop
endfacet
facet normal 0.754709580222772 0.0 -0.6560590289905073
  outer loop
    vertex 171.78917794275117 69.48655939595649 60.48619681833099
    vertex 162.41758244874717 67.43201036423844 49.70540943677406
    vertex 162.63386634355473 68.22790751540012 49.95421559635152
  endloop
endfacet
facet normal 0.754709580222772 0.0 -0.6560590289905073
  outer loop
    vertex 171.78917794275117 69.48655939595649 60.48619681833099
    vertex 162.63386634355473 68.22790751540012 49.95421559635152
    vertex 162.7076367523057 69.08201036423844 50.03907874396626
  endloop
endfacet
facet normal 0.754709580222772 0.0 -0.6560590289905073
  outer loop
    vertex 171.78917794275117 69.48655939595649 60.48619681833099
    vertex 162.7076367523057 69.08201036423844 50.03907874396626
    vertex 162.63386634355473 69.93611321307675 49.95421559635152
  endloop
endfacet
facet normal 0.754709580222772 0.0 -0.6560590289905073
  outer loop
    vertex 171.78917794275117 69.48655939595649 60.48619681833099
    vertex 162.63386634355473 69.93611321307675 49.95421559635152
    vertex 171.78917794275117 99.4865593959565 60.48619681833099
  endloop
endfacet
facet normal 0.754709580222772 0.0 -0.6560590289905073
  outer loop
    vertex 171.78917794275117 99.4865593959565 60.48619681833099
    vertex 162.63386634355473 69.93611321307675 49.95421559635152
    vertex 162.41758244874717 70.73201036423843 49.70540943677406
  endloop
endfacet
facet normal 0.754709580222772 0.0 -0.6560590289905073
  outer loop
    vertex 171.78917794275117 99.4865593959565 60.48619681833099
    vertex 162.41758244874717 70.73201036423843 49.70540943677406
    vertex 162.07352445788786 71.41546274215405 49.30961599383764
  endloop
endfacet
facet normal 0.754709580222772 0.0 -0.6560590289905073
  outer loop
    vertex 171.78917794275117 99.4865593959565 60.48619681833099
    vertex 162.07352445788786 71.41546274215405 49.30961599383764
    vertex 161.62513935447134 71.93989419672708 48.79380793659872
  endloop
endfacet
facet normal 0.754709580222772 0.0 -0.6560590289905073
  outer loop
    vertex 171.78917794275117 99.4865593959565 60.48619681833099
    vertex 161.62513935447134 71.93989419672708 48.79380793659872
    vertex 161.10298384230398 72.26956559099236 48.19313673174499
  endloop
endfacet
facet normal 0.754709580222772 0.0 -0.6560590289905073
  outer loop
    vertex 171.78917794275117 99.4865593959565 60.48619681833099
    vertex 161.10298384230398 72.26956559099236 48.19313673174499
    vertex 160.54264195663703 72.38201036423844 47.54853712923115
  endloop
endfacet
facet normal 0.754709580222772 0.0 -0.6560590289905073
  outer loop
    vertex 171.78917794275117 99.4865593959565 60.48619681833099
    vertex 160.54264195663703 72.38201036423844 47.54853712923115
    vertex 124.94638351265509 99.4865593959565 6.599726000000036
  endloop
endfacet
facet normal -0.0 -1.0 -0.0
  outer loop
    vertex 124.94638351265509 19.580936395956506 0.0
    vertex 121.9463835126551 19.580936395956506 3.0
    vertex 22.49193551265509 19.580936395956506 0.0
  endloop
endfacet
facet normal -0.0 -1.0 -0.0
  outer loop
    vertex 121.9463835126551 19.580936395956506 3.0
    vertex 124.94638351265509 19.580936395956506 0.0
    vertex 124.94638351265509 19.580936395956506 6.5997260000000475
  endloop
endfacet
facet normal -0.0 -1.0 -0.0
  outer loop
    vertex 121.9463835126551 19.580936395956506 3.0
    vertex 124.94638351265509 19.580936395956506 6.5997260000000475
    vertex 121.9463835126551 19.580936395956506 6.5997260000000475
  endloop
endfacet
facet normal -0.0 -1.0 -0.0
  outer loop
    vertex 22.49193551265509 19.580936395956506 3.0
    vertex 22.49193551265509 19.580936395956506 0.0
    vertex 121.9463835126551 19.580936395956506 3.0
  endloop
endfacet
facet normal -0.754709580222772 0.0 0.6560590289905073
  outer loop
    vertex 169.52504920208276 69.48655939595649 62.454373905302454
    vertex 122.6822547719866 39.486559395956505 8.567903086971663
    vertex 169.52504920208276 39.486559395956505 62.454373905302454
  endloop
endfacet
facet normal -0.754709580222772 0.0 0.6560590289905073
  outer loop
    vertex 122.6822547719866 39.486559395956505 8.567903086971663
    vertex 169.52504920208276 69.48655939595649 62.454373905302454
    vertex 158.83885510163566 65.89445513748451 50.161313818716444
  endloop
endfacet
facet normal -0.754709580222772 0.0 0.6560590289905073
  outer loop
    vertex 122.6822547719866 39.486559395956505 8.567903086971663
    vertex 158.83885510163566 65.89445513748451 50.161313818716444
    vertex 158.27851321596862 65.78201036423843 49.51671421620265
  endloop
endfacet
facet normal -0.754709580222772 0.0 0.6560590289905073
  outer loop
    vertex 158.83885510163566 65.89445513748451 50.161313818716444
    vertex 169.52504920208276 69.48655939595649 62.454373905302454
    vertex 159.361010613803 66.22412653174979 50.76198502357018
  endloop
endfacet
facet normal -0.754709580222772 0.0 0.6560590289905073
  outer loop
    vertex 159.361010613803 66.22412653174979 50.76198502357018
    vertex 169.52504920208276 69.48655939595649 62.454373905302454
    vertex 159.80939571721953 66.74855798632284 51.2777930808092
  endloop
endfacet
facet normal -0.754709580222772 0.0 0.6560590289905073
  outer loop
    vertex 159.80939571721953 66.74855798632284 51.2777930808092
    vertex 169.52504920208276 69.48655939595649 62.454373905302454
    vertex 160.15345370807879 67.43201036423844 51.673586523745634
  endloop
endfacet
facet normal -0.754709580222772 0.0 0.6560590289905073
  outer loop
    vertex 160.15345370807879 67.43201036423844 51.673586523745634
    vertex 169.52504920208276 69.48655939595649 62.454373905302454
    vertex 160.36973760288646 68.22790751540012 51.922392683323
  endloop
endfacet
facet normal -0.754709580222772 0.0 0.6560590289905073
  outer loop
    vertex 160.36973760288646 68.22790751540012 51.922392683323
    vertex 169.52504920208276 69.48655939595649 62.454373905302454
    vertex 160.44350801163742 69.08201036423844 52.00725583093773
  endloop
endfacet
facet normal -0.754709580222772 0.0 0.6560590289905073
  outer loop
    vertex 160.44350801163742 69.08201036423844 52.00725583093773
    vertex 169.52504920208276 69.48655939595649 62.454373905302454
    vertex 160.36973760288646 69.93611321307675 51.922392683323
  endloop
endfacet
facet normal -0.754709580222772 0.0 0.6560590289905073
  outer loop
    vertex 160.36973760288646 69.93611321307675 51.922392683323
    vertex 169.52504920208276 69.48655939595649 62.454373905302454
    vertex 169.52504920208276 99.4865593959565 62.454373905302454
  endloop
endfacet
facet normal -0.754709580222772 0.0 0.6560590289905073
  outer loop
    vertex 160.36973760288646 69.93611321307675 51.922392683323
    vertex 169.52504920208276 99.4865593959565 62.454373905302454
    vertex 160.15345370807879 70.73201036423843 51.673586523745634
  endloop
endfacet
facet normal -0.754709580222772 0.0 0.6560590289905073
  outer loop
    vertex 160.15345370807879 70.73201036423843 51.673586523745634
    vertex 169.52504920208276 99.4865593959565 62.454373905302454
    vertex 159.80939571721953 71.41546274215405 51.2777930808092
  endloop
endfacet
facet normal -0.754709580222772 0.0 0.6560590289905073
  outer loop
    vertex 159.80939571721953 71.41546274215405 51.2777930808092
    vertex 169.52504920208276 99.4865593959565 62.454373905302454
    vertex 159.36101061380302 71.93989419672708 50.7619850235702
  endloop
endfacet
facet normal -0.754709580222772 0.0 0.6560590289905073
  outer loop
    vertex 159.36101061380302 71.93989419672708 50.7619850235702
    vertex 169.52504920208276 99.4865593959565 62.454373905302454
    vertex 158.83885510163566 72.26956559099236 50.161313818716444
  endloop
endfacet
facet normal -0.754709580222772 0.0 0.6560590289905073
  outer loop
    vertex 158.83885510163566 72.26956559099236 50.161313818716444
    vertex 169.52504920208276 99.4865593959565 62.454373905302454
    vertex 158.27851321596862 72.38201036423844 49.51671421620265
  endloop
endfacet
facet normal -0.754709580222772 0.0 0.6560590289905073
  outer loop
    vertex 122.6822547719866 39.486559395956505 8.567903086971663
    vertex 157.19601581813438 66.22412653174979 48.27144340883503
    vertex 122.6822547719866 99.4865593959565 8.56790308697165
  endloop
endfacet
facet normal -0.754709580222772 0.0 0.6560590289905073
  outer loop
    vertex 157.19601581813438 66.22412653174979 48.27144340883503
    vertex 122.6822547719866 39.486559395956505 8.567903086971663
    vertex 157.71817133030183 65.89445513748451 48.87211461368879
  endloop
endfacet
facet normal -0.754709580222772 0.0 0.6560590289905073
  outer loop
    vertex 157.71817133030183 65.89445513748451 48.87211461368879
    vertex 122.6822547719866 39.486559395956505 8.567903086971663
    vertex 158.27851321596862 65.78201036423843 49.51671421620265
  endloop
endfacet
facet normal -0.754709580222772 0.0 0.6560590289905073
  outer loop
    vertex 122.6822547719866 99.4865593959565 8.56790308697165
    vertex 157.19601581813438 66.22412653174979 48.27144340883503
    vertex 156.74763071471787 66.74855798632284 47.755635351596084
  endloop
endfacet
facet normal -0.754709580222772 0.0 0.6560590289905073
  outer loop
    vertex 122.6822547719866 99.4865593959565 8.56790308697165
    vertex 156.74763071471787 66.74855798632284 47.755635351596084
    vertex 156.4035727238586 67.43201036423844 47.35984190865969
  endloop
endfacet
facet normal -0.754709580222772 0.0 0.6560590289905073
  outer loop
    vertex 122.6822547719866 99.4865593959565 8.56790308697165
    vertex 156.4035727238586 67.43201036423844 47.35984190865969
    vertex 156.187288829051 68.22790751540012 47.11103574908227
  endloop
endfacet
facet normal -0.754709580222772 0.0 0.6560590289905073
  outer loop
    vertex 122.6822547719866 99.4865593959565 8.56790308697165
    vertex 156.187288829051 68.22790751540012 47.11103574908227
    vertex 156.1135184203 69.08201036423844 47.02617260146749
  endloop
endfacet
facet normal -0.754709580222772 0.0 0.6560590289905073
  outer loop
    vertex 122.6822547719866 99.4865593959565 8.56790308697165
    vertex 156.1135184203 69.08201036423844 47.02617260146749
    vertex 156.187288829051 69.93611321307675 47.11103574908227
  endloop
endfacet
facet normal -0.754709580222772 0.0 0.6560590289905073
  outer loop
    vertex 122.6822547719866 99.4865593959565 8.56790308697165
    vertex 156.187288829051 69.93611321307675 47.11103574908227
    vertex 156.4035727238586 70.73201036423845 47.35984190865969
  endloop
endfacet
facet normal -0.754709580222772 0.0 0.6560590289905073
  outer loop
    vertex 122.6822547719866 99.4865593959565 8.56790308697165
    vertex 156.4035727238586 70.73201036423845 47.35984190865969
    vertex 156.74763071471787 71.41546274215405 47.755635351596084
  endloop
endfacet
facet normal -0.754709580222772 0.0 0.6560590289905073
  outer loop
    vertex 122.6822547719866 99.4865593959565 8.56790308697165
    vertex 156.74763071471787 71.41546274215405 47.755635351596084
    vertex 157.19601581813438 71.93989419672708 48.27144340883503
  endloop
endfacet
facet normal -0.754709580222772 0.0 0.6560590289905073
  outer loop
    vertex 122.6822547719866 99.4865593959565 8.56790308697165
    vertex 157.19601581813438 71.93989419672708 48.27144340883503
    vertex 157.71817133030183 72.26956559099237 48.87211461368879
  endloop
endfacet
facet normal -0.754709580222772 0.0 0.6560590289905073
  outer loop
    vertex 122.6822547719866 99.4865593959565 8.56790308697165
    vertex 157.71817133030183 72.26956559099237 48.87211461368879
    vertex 158.27851321596862 72.38201036423844 49.51671421620265
  endloop
endfacet
facet normal -0.754709580222772 0.0 0.6560590289905073
  outer loop
    vertex 122.6822547719866 99.4865593959565 8.56790308697165
    vertex 158.27851321596862 72.38201036423844 49.51671421620265
    vertex 169.52504920208276 99.4865593959565 62.454373905302454
  endloop
endfacet
facet normal 0.0 1.0 0.0
  outer loop
    vertex 22.49193551265509 119.39218239595648 3.0
    vertex 124.94638351265509 119.39218239595648 0.0
    vertex 22.49193551265509 119.39218239595648 0.0
  endloop
endfacet
facet normal 0.0 1.0 0.0
  outer loop
    vertex 124.94638351265509 119.39218239595648 0.0
    vertex 22.49193551265509 119.39218239595648 3.0
    vertex 121.9463835126551 119.39218239595648 3.0
  endloop
endfacet
facet normal 0.0 1.0 0.0
  outer loop
    vertex 124.94638351265509 119.39218239595648 0.0
    vertex 121.9463835126551 119.39218239595648 3.0
    vertex 124.94638351265509 119.39218239595648 6.599726000000036
  endloop
endfacet
facet normal 0.0 1.0 0.0
  outer loop
    vertex 124.94638351265509 119.39218239595648 6.599726000000036
    vertex 121.9463835126551 119.39218239595648 3.0
    vertex 121.9463835126551 119.39218239595648 6.599726000000036
  endloop
endfacet
facet normal 0.0 0.0 -1.0
  outer loop
    vertex 124.94638351265509 119.39218239595648 0.0
    vertex 22.49193551265509 103.01124007959639 0.0
    vertex 22.49193551265509 119.39218239595648 0.0
  endloop
endfacet
facet normal 0.0 0.0 -1.0
  outer loop
    vertex 22.49193551265509 103.01124007959639 0.0
    vertex 124.94638351265509 119.39218239595648 0.0
    vertex 107.85520651265509 103.01124007959639 0.0
  endloop
endfacet
facet normal 0.0 0.0 -1.0
  outer loop
    vertex 107.85520651265509 103.01124007959639 0.0
    vertex 124.94638351265509 119.39218239595648 0.0
    vertex 107.85520651265509 33.094675079596406 0.0
  endloop
endfacet
facet normal 0.0 0.0 -1.0
  outer loop
    vertex 107.85520651265509 33.094675079596406 0.0
    vertex 22.49193551265509 19.580936395956506 0.0
    vertex 22.49193551265509 33.09467507959643 0.0
  endloop
endfacet
facet normal 0.0 0.0 -1.0
  outer loop
    vertex 22.49193551265509 19.580936395956506 0.0
    vertex 107.85520651265509 33.094675079596406 0.0
    vertex 124.94638351265509 19.580936395956506 0.0
  endloop
endfacet
facet normal 0.0 0.0 -1.0
  outer loop
    vertex 124.94638351265509 19.580936395956506 0.0
    vertex 107.85520651265509 33.094675079596406 0.0
    vertex 124.94638351265509 119.39218239595648 0.0
  endloop
endfacet
facet normal 0.6560590289905073 0.0 0.754709580222772
  outer loop
    vertex 171.78917794275117 69.48655939595649 60.48619681833099
    vertex 169.52504920208276 99.4865593959565 62.454373905302454
    vertex 169.52504920208276 69.48655939595649 62.454373905302454
  endloop
endfacet
facet normal 0.6560590289905073 0.0 0.754709580222772
  outer loop
    vertex 169.52504920208276 99.4865593959565 62.454373905302454
    vertex 171.78917794275117 69.48655939595649 60.48619681833099
    vertex 171.78917794275117 99.4865593959565 60.48619681833099
  endloop
endfacet
facet normal 0.6560590289905073 0.0 0.754709580222772
  outer loop
    vertex 171.78917794275117 39.4865593959565 60.48619681833099
    vertex 169.52504920208276 69.48655939595649 62.454373905302454
    vertex 169.52504920208276 39.486559395956505 62.454373905302454
  endloop
endfacet
facet normal 0.6560590289905073 0.0 0.754709580222772
  outer loop
    vertex 169.52504920208276 69.48655939595649 62.454373905302454
    vertex 171.78917794275117 39.4865593959565 60.48619681833099
    vertex 171.78917794275117 69.48655939595649 60.48619681833099
  endloop
endfacet
facet normal 0.0 1.0 0.0
  outer loop
    vertex 122.6822547719866 99.4865593959565 8.56790308697165
    vertex 171.78917794275117 99.4865593959565 60.48619681833099
    vertex 124.94638351265509 99.4865593959565 6.599726000000036
  endloop
endfacet
facet normal 0.0 1.0 0.0
  outer loop
    vertex 171.78917794275117 99.4865593959565 60.48619681833099
    vertex 122.6822547719866 99.4865593959565 8.56790308697165
    vertex 169.52504920208276 99.4865593959565 62.454373905302454
  endloop
endfacet
facet normal -2.837674293714685e-15 -1.0 2.4667526297682035e-15
  outer loop
    vertex 171.78917794275117 39.4865593959565 60.48619681833099
    vertex 122.6822547719866 39.486559395956505 8.567903086971663
    vertex 124.94638351265509 39.4865593959565 6.5997260000000475
  endloop
endfacet
facet normal -2.837674293714685e-15 -1.0 2.4667526297682035e-15
  outer loop
    vertex 122.6822547719866 39.486559395956505 8.567903086971663
    vertex 171.78917794275117 39.4865593959565 60.48619681833099
    vertex 169.52504920208276 39.486559395956505 62.454373905302454
  endloop
endfacet
facet normal -0.16980057141420946 0.9659258262890685 -0.19533321288298144
  outer loop
    vertex 158.83885510163566 65.89445513748451 50.161313818716444
    vertex 161.62513935447134 66.22412653174979 48.79380793659872
    vertex 161.10298384230398 65.89445513748451 48.19313673174499
  endloop
endfacet
facet normal -0.328029514495251 0.8660254037844409 -0.37735479011138295
  outer loop
    vertex 161.62513935447134 66.22412653174979 48.79380793659872
    vertex 158.83885510163566 65.89445513748451 50.161313818716444
    vertex 159.361010613803 66.22412653174979 50.76198502357018
  endloop
endfacet
facet normal 2.8782884962942245e-15 1.0 3.3149328811809645e-15
  outer loop
    vertex 158.27851321596862 65.78201036423843 49.51671421620265
    vertex 161.10298384230398 65.89445513748451 48.19313673174499
    vertex 160.54264195663703 65.78201036423843 47.54853712923115
  endloop
endfacet
facet normal -0.1698005714142124 0.9659258262890673 -0.19533321288298477
  outer loop
    vertex 161.10298384230398 65.89445513748451 48.19313673174499
    vertex 158.27851321596862 65.78201036423843 49.51671421620265
    vertex 158.83885510163566 65.89445513748451 50.161313818716444
  endloop
endfacet
facet normal 0.16980057141420682 0.9659258262890696 0.19533321288297836
  outer loop
    vertex 157.71817133030183 65.89445513748451 48.87211461368879
    vertex 160.54264195663703 65.78201036423843 47.54853712923115
    vertex 159.98230007097015 65.89445513748451 46.903937526717286
  endloop
endfacet
facet normal -1.8178664187119116e-15 1.0 -2.094110825476957e-15
  outer loop
    vertex 160.54264195663703 65.78201036423843 47.54853712923115
    vertex 157.71817133030183 65.89445513748451 48.87211461368879
    vertex 158.27851321596862 65.78201036423843 49.51671421620265
  endloop
endfacet
facet normal 0.32802951449525186 0.8660254037844402 0.37735479011138384
  outer loop
    vertex 157.19601581813438 66.22412653174979 48.27144340883503
    vertex 159.98230007097015 65.89445513748451 46.903937526717286
    vertex 159.4601445588028 66.22412653174979 46.30326632186344
  endloop
endfacet
facet normal 0.1698005714142154 0.9659258262890662 0.19533321288298827
  outer loop
    vertex 159.98230007097015 65.89445513748451 46.903937526717286
    vertex 157.19601581813438 66.22412653174979 48.27144340883503
    vertex 157.71817133030183 65.89445513748451 48.87211461368879
  endloop
endfacet
facet normal 0.4639037882578504 0.7071067811865462 0.5336602620019757
  outer loop
    vertex 156.74763071471787 66.74855798632284 47.755635351596084
    vertex 159.4601445588028 66.22412653174979 46.30326632186344
    vertex 159.0117594553861 66.74855798632284 45.78745826462452
  endloop
endfacet
facet normal 0.3280295144952545 0.8660254037844379 0.377354790111387
  outer loop
    vertex 159.4601445588028 66.22412653174979 46.30326632186344
    vertex 156.74763071471787 66.74855798632284 47.755635351596084
    vertex 157.19601581813438 66.22412653174979 48.27144340883503
  endloop
endfacet
facet normal 0.5681637854879311 0.49999999999999917 0.6535976689524106
  outer loop
    vertex 156.4035727238586 67.43201036423844 47.35984190865969
    vertex 159.0117594553861 66.74855798632284 45.78745826462452
    vertex 158.66770146452686 67.43201036423844 45.39166482168815
  endloop
endfacet
facet normal 0.4639037882578489 0.7071067811865486 0.533660262001974
  outer loop
    vertex 159.0117594553861 66.74855798632284 45.78745826462452
    vertex 156.4035727238586 67.43201036423844 47.35984190865969
    vertex 156.74763071471787 66.74855798632284 47.755635351596084
  endloop
endfacet
facet normal 0.5681637854879311 0.49999999999999917 0.6535976689524106
  outer loop
    vertex 156.4035727238586 67.43201036423844 47.35984190865969
    vertex 158.45141756971935 68.22790751540012 45.14285866211073
    vertex 156.187288829051 68.22790751540012 47.11103574908227
  endloop
endfacet
facet normal 0.6337043596720595 0.2588190451025215 0.7289934748849566
  outer loop
    vertex 158.45141756971935 68.22790751540012 45.14285866211073
    vertex 156.4035727238586 67.43201036423844 47.35984190865969
    vertex 158.66770146452686 67.43201036423844 45.39166482168815
  endloop
endfacet
facet normal 0.6337043596720595 0.2588190451025214 0.7289934748849567
  outer loop
    vertex 156.187288829051 68.22790751540012 47.11103574908227
    vertex 158.37764716096837 69.08201036423844 45.05799551449592
    vertex 156.1135184203 69.08201036423844 47.02617260146749
  endloop
endfacet
facet normal 0.6560590289905075 0.0 0.7547095802227718
  outer loop
    vertex 158.37764716096837 69.08201036423844 45.05799551449592
    vertex 156.187288829051 68.22790751540012 47.11103574908227
    vertex 158.45141756971935 68.22790751540012 45.14285866211073
  endloop
endfacet
facet normal 0.6560590289905075 0.0 0.7547095802227718
  outer loop
    vertex 158.37764716096837 69.08201036423844 45.05799551449592
    vertex 156.187288829051 69.93611321307675 47.11103574908227
    vertex 156.1135184203 69.08201036423844 47.02617260146749
  endloop
endfacet
facet normal 0.63370435967206 -0.25881904510251896 0.7289934748849571
  outer loop
    vertex 156.187288829051 69.93611321307675 47.11103574908227
    vertex 158.37764716096837 69.08201036423844 45.05799551449592
    vertex 158.45141756971935 69.93611321307675 45.14285866211073
  endloop
endfacet
facet normal 0.6337043596720601 -0.25881904510251913 0.7289934748849572
  outer loop
    vertex 158.45141756971935 69.93611321307675 45.14285866211073
    vertex 156.4035727238586 70.73201036423845 47.35984190865969
    vertex 156.187288829051 69.93611321307675 47.11103574908227
  endloop
endfacet
facet normal 0.5681637854879307 -0.5000000000000004 0.6535976689524101
  outer loop
    vertex 156.4035727238586 70.73201036423845 47.35984190865969
    vertex 158.45141756971935 69.93611321307675 45.14285866211073
    vertex 158.66770146452686 70.73201036423845 45.39166482168815
  endloop
endfacet
facet normal 0.46390378825784506 -0.7071067811865541 0.5336602620019697
  outer loop
    vertex 159.0117594553861 71.41546274215405 45.78745826462452
    vertex 156.4035727238586 70.73201036423845 47.35984190865969
    vertex 158.66770146452686 70.73201036423845 45.39166482168815
  endloop
endfacet
facet normal 0.5681637854879307 -0.5000000000000004 0.6535976689524101
  outer loop
    vertex 156.4035727238586 70.73201036423845 47.35984190865969
    vertex 159.0117594553861 71.41546274215405 45.78745826462452
    vertex 156.74763071471787 71.41546274215405 47.755635351596084
  endloop
endfacet
facet normal 0.3280295144952571 -0.8660254037844356 0.37735479011139006
  outer loop
    vertex 159.4601445588028 71.93989419672708 46.30326632186344
    vertex 156.74763071471787 71.41546274215405 47.755635351596084
    vertex 159.0117594553861 71.41546274215405 45.78745826462452
  endloop
endfacet
facet normal 0.46390378825784667 -0.7071067811865519 0.5336602620019715
  outer loop
    vertex 156.74763071471787 71.41546274215405 47.755635351596084
    vertex 159.4601445588028 71.93989419672708 46.30326632186344
    vertex 157.19601581813438 71.93989419672708 48.27144340883503
  endloop
endfacet
facet normal 0.1698005714142168 -0.9659258262890655 0.19533321288298985
  outer loop
    vertex 159.98230007097015 72.26956559099237 46.903937526717286
    vertex 157.19601581813438 71.93989419672708 48.27144340883503
    vertex 159.4601445588028 71.93989419672708 46.30326632186344
  endloop
endfacet
facet normal 0.3280295144952544 -0.8660254037844382 0.37735479011138684
  outer loop
    vertex 157.19601581813438 71.93989419672708 48.27144340883503
    vertex 159.98230007097015 72.26956559099237 46.903937526717286
    vertex 157.71817133030183 72.26956559099237 48.87211461368879
  endloop
endfacet
facet normal -6.0328213993527615e-15 -1.0 -6.950665718604364e-15
  outer loop
    vertex 160.54264195663703 72.38201036423844 47.54853712923115
    vertex 157.71817133030183 72.26956559099237 48.87211461368879
    vertex 159.98230007097015 72.26956559099237 46.903937526717286
  endloop
endfacet
facet normal 0.16980057141420826 -0.9659258262890691 0.19533321288298
  outer loop
    vertex 157.71817133030183 72.26956559099237 48.87211461368879
    vertex 160.54264195663703 72.38201036423844 47.54853712923115
    vertex 158.27851321596862 72.38201036423844 49.51671421620265
  endloop
endfacet
facet normal -0.1698005714142108 -0.9659258262890681 -0.19533321288298292
  outer loop
    vertex 161.10298384230398 72.26956559099236 48.19313673174499
    vertex 158.27851321596862 72.38201036423844 49.51671421620265
    vertex 160.54264195663703 72.38201036423844 47.54853712923115
  endloop
endfacet
facet normal -1.3455775942428098e-15 -1.0 -1.5416220119470604e-15
  outer loop
    vertex 158.27851321596862 72.38201036423844 49.51671421620265
    vertex 161.10298384230398 72.26956559099236 48.19313673174499
    vertex 158.83885510163566 72.26956559099236 50.161313818716444
  endloop
endfacet
facet normal -0.3280295144952515 -0.8660254037844407 -0.3773547901113835
  outer loop
    vertex 161.62513935447134 71.93989419672708 48.79380793659872
    vertex 158.83885510163566 72.26956559099236 50.161313818716444
    vertex 161.10298384230398 72.26956559099236 48.19313673174499
  endloop
endfacet
facet normal -0.16980057141420762 -0.9659258262890694 -0.1953332128829793
  outer loop
    vertex 158.83885510163566 72.26956559099236 50.161313818716444
    vertex 161.62513935447134 71.93989419672708 48.79380793659872
    vertex 159.36101061380302 71.93989419672708 50.7619850235702
  endloop
endfacet
facet normal -0.46390378825785145 -0.7071067811865447 -0.5336602620019768
  outer loop
    vertex 162.07352445788786 71.41546274215405 49.30961599383764
    vertex 159.36101061380302 71.93989419672708 50.7619850235702
    vertex 161.62513935447134 71.93989419672708 48.79380793659872
  endloop
endfacet
facet normal -0.3280295144952574 -0.8660254037844354 -0.37735479011139034
  outer loop
    vertex 159.36101061380302 71.93989419672708 50.7619850235702
    vertex 162.07352445788786 71.41546274215405 49.30961599383764
    vertex 159.80939571721953 71.41546274215405 51.2777930808092
  endloop
endfacet
facet normal -0.5681637854879308 -0.5000000000000002 -0.6535976689524101
  outer loop
    vertex 162.41758244874717 70.73201036423843 49.70540943677406
    vertex 159.80939571721953 71.41546274215405 51.2777930808092
    vertex 162.07352445788786 71.41546274215405 49.30961599383764
  endloop
endfacet
facet normal -0.46390378825785317 -0.7071067811865421 -0.5336602620019789
  outer loop
    vertex 159.80939571721953 71.41546274215405 51.2777930808092
    vertex 162.41758244874717 70.73201036423843 49.70540943677406
    vertex 160.15345370807879 70.73201036423843 51.673586523745634
  endloop
endfacet
facet normal -0.5681637854879308 -0.5000000000000002 -0.6535976689524101
  outer loop
    vertex 162.41758244874717 70.73201036423843 49.70540943677406
    vertex 160.36973760288646 69.93611321307675 51.922392683323
    vertex 160.15345370807879 70.73201036423843 51.673586523745634
  endloop
endfacet
facet normal -0.6337043596720578 -0.25881904510253123 -0.7289934748849548
  outer loop
    vertex 160.36973760288646 69.93611321307675 51.922392683323
    vertex 162.41758244874717 70.73201036423843 49.70540943677406
    vertex 162.63386634355473 69.93611321307675 49.95421559635152
  endloop
endfacet
facet normal -0.6337043596720592 -0.2588190451025231 -0.7289934748849565
  outer loop
    vertex 162.63386634355473 69.93611321307675 49.95421559635152
    vertex 160.44350801163742 69.08201036423844 52.00725583093773
    vertex 160.36973760288646 69.93611321307675 51.922392683323
  endloop
endfacet
facet normal -0.6560590289905075 0.0 -0.7547095802227717
  outer loop
    vertex 160.44350801163742 69.08201036423844 52.00725583093773
    vertex 162.63386634355473 69.93611321307675 49.95421559635152
    vertex 162.7076367523057 69.08201036423844 50.03907874396626
  endloop
endfacet
facet normal -0.6560590289905075 0.0 -0.7547095802227717
  outer loop
    vertex 160.44350801163742 69.08201036423844 52.00725583093773
    vertex 162.63386634355473 68.22790751540012 49.95421559635152
    vertex 160.36973760288646 68.22790751540012 51.922392683323
  endloop
endfacet
facet normal -0.6337043596720598 0.25881904510252074 -0.7289934748849569
  outer loop
    vertex 162.63386634355473 68.22790751540012 49.95421559635152
    vertex 160.44350801163742 69.08201036423844 52.00725583093773
    vertex 162.7076367523057 69.08201036423844 50.03907874396626
  endloop
endfacet
facet normal -0.6337043596720583 0.2588190451025289 -0.7289934748849551
  outer loop
    vertex 160.36973760288646 68.22790751540012 51.922392683323
    vertex 162.41758244874717 67.43201036423844 49.70540943677406
    vertex 160.15345370807879 67.43201036423844 51.673586523745634
  endloop
endfacet
facet normal -0.5681637854879303 0.5000000000000014 -0.6535976689524096
  outer loop
    vertex 162.41758244874717 67.43201036423844 49.70540943677406
    vertex 160.36973760288646 68.22790751540012 51.922392683323
    vertex 162.63386634355473 68.22790751540012 49.95421559635152
  endloop
endfacet
facet normal -0.46390378825784917 0.7071067811865479 -0.5336602620019745
  outer loop
    vertex 159.80939571721953 66.74855798632284 51.2777930808092
    vertex 162.41758244874717 67.43201036423844 49.70540943677406
    vertex 162.07352445788786 66.74855798632284 49.30961599383764
  endloop
endfacet
facet normal -0.5681637854879303 0.5000000000000014 -0.6535976689524096
  outer loop
    vertex 162.41758244874717 67.43201036423844 49.70540943677406
    vertex 159.80939571721953 66.74855798632284 51.2777930808092
    vertex 160.15345370807879 67.43201036423844 51.673586523745634
  endloop
endfacet
facet normal -0.3280295144952562 0.8660254037844363 -0.377354790111389
  outer loop
    vertex 159.361010613803 66.22412653174979 50.76198502357018
    vertex 162.07352445788786 66.74855798632284 49.30961599383764
    vertex 161.62513935447134 66.22412653174979 48.79380793659872
  endloop
endfacet
facet normal -0.46390378825784767 0.7071067811865503 -0.5336602620019727
  outer loop
    vertex 162.07352445788786 66.74855798632284 49.30961599383764
    vertex 159.361010613803 66.22412653174979 50.76198502357018
    vertex 159.80939571721953 66.74855798632284 51.2777930808092
  endloop
endfacet
facet normal -0.0 -0.0983956274135835 0.9951473762744326
  outer loop
    vertex 124.94638351265509 19.580936395956506 6.5997260000000475
    vertex 122.6822547719866 39.486559395956505 8.567903086971663
    vertex 121.9463835126551 19.580936395956506 6.5997260000000475
  endloop
endfacet
facet normal 0.6560590289904971 -0.0 0.7547095802227809
  outer loop
    vertex 124.94638351265509 39.4865593959565 6.5997260000000475
    vertex 122.6822547719866 39.486559395956505 8.567903086971663
    vertex 124.94638351265509 19.580936395956506 6.5997260000000475
  endloop
endfacet
facet normal 0.6528754213810456 0.09839562741357727 0.7510472586078794
  outer loop
    vertex 124.94638351265509 99.4865593959565 6.599726000000036
    vertex 121.9463835126551 119.39218239595648 6.599726000000036
    vertex 122.6822547719866 99.4865593959565 8.56790308697165
  endloop
endfacet
facet normal -0.0 -0.0 1.0
  outer loop
    vertex 124.94638351265509 119.39218239595648 6.599726000000036
    vertex 121.9463835126551 119.39218239595648 6.599726000000036
    vertex 124.94638351265509 99.4865593959565 6.599726000000036
  endloop
endfacet
facet normal 0.656059028990497 1.4395106066438382e-16 0.7547095802227809
  outer loop
    vertex 124.94638351265509 39.4865593959565 6.5997260000000475
    vertex 122.6822547719866 99.4865593959565 8.56790308697165
    vertex 122.6822547719866 39.486559395956505 8.567903086971663
  endloop
endfacet
facet normal 0.656059028990497 1.4395106066438377e-16 0.7547095802227809
  outer loop
    vertex 124.94638351265509 99.4865593959565 6.599726000000036
    vertex 122.6822547719866 99.4865593959565 8.56790308697165
    vertex 124.94638351265509 39.4865593959565 6.5997260000000475
  endloop
endfacet
facet normal 1.0 -0.0 -0.0
  outer loop
    vertex 124.94638351265509 119.39218239595648 0.0
    vertex 124.94638351265509 19.580936395956506 6.5997260000000475
    vertex 124.94638351265509 19.580936395956506 0.0
  endloop
endfacet
facet normal 1.0 -0.0 -0.0
  outer loop
    vertex 124.94638351265509 119.39218239595648 0.0
    vertex 124.94638351265509 39.4865593959565 6.5997260000000475
    vertex 124.94638351265509 19.580936395956506 6.5997260000000475
  endloop
endfacet
facet normal 1.0 -0.0 -0.0
  outer loop
    vertex 124.94638351265509 119.39218239595648 0.0
    vertex 124.94638351265509 99.4865593959565 6.599726000000036
    vertex 124.94638351265509 39.4865593959565 6.5997260000000475
  endloop
endfacet
facet normal 1.0 -0.0 -0.0
  outer loop
    vertex 124.94638351265509 119.39218239595648 6.599726000000036
    vertex 124.94638351265509 99.4865593959565 6.599726000000036
    vertex 124.94638351265509 119.39218239595648 0.0
  endloop
endfacet
facet normal -0.99931738272457 0.0369427744561121 -5.269985169498971e-17
  outer loop
    vertex 122.6822547719866 39.486559395956505 8.567903086971663
    vertex 121.9463835126551 19.580936395956506 3.0
    vertex 121.9463835126551 19.580936395956506 6.5997260000000475
  endloop
endfacet
facet normal -0.9913792310247237 -8.69148364154809e-19 0.1310237394246836
  outer loop
    vertex 121.9463835126551 119.39218239595648 3.0
    vertex 121.9463835126551 19.580936395956506 3.0
    vertex 122.6822547719866 39.486559395956505 8.567903086971663
  endloop
endfacet
facet normal -0.9913792310247237 2.4051954337676522e-17 0.13102373942468398
  outer loop
    vertex 121.9463835126551 119.39218239595648 3.0
    vertex 122.6822547719866 39.486559395956505 8.567903086971663
    vertex 122.6822547719866 99.4865593959565 8.56790308697165
  endloop
endfacet
facet normal -0.99931738272457 -0.0369427744561121 5.269985169499007e-17
  outer loop
    vertex 121.9463835126551 119.39218239595648 3.0
    vertex 122.6822547719866 99.4865593959565 8.56790308697165
    vertex 121.9463835126551 119.39218239595648 6.599726000000036
  endloop
endfacet
facet normal -0.0 -0.0 1.0
  outer loop
    vertex 121.9463835126551 19.580936395956506 3.0
    vertex 22.49193551265509 33.09467507959643 3.0
    vertex 22.49193551265509 19.580936395956506 3.0
  endloop
endfacet
facet normal -0.0 -0.0 1.0
  outer loop
    vertex 22.49193551265509 33.09467507959643 3.0
    vertex 121.9463835126551 19.580936395956506 3.0
    vertex 107.85520651265509 33.094675079596406 3.0
  endloop
endfacet
facet normal -0.0 -0.0 1.0
  outer loop
    vertex 107.85520651265509 33.094675079596406 3.0
    vertex 121.9463835126551 19.580936395956506 3.0
    vertex 107.85520651265509 103.01124007959639 3.0
  endloop
endfacet
facet normal -0.0 -0.0 1.0
  outer loop
    vertex 107.85520651265509 103.01124007959639 3.0
    vertex 22.49193551265509 119.39218239595648 3.0
    vertex 22.49193551265509 103.01124007959639 3.0
  endloop
endfacet
facet normal -0.0 -0.0 1.0
  outer loop
    vertex 22.49193551265509 119.39218239595648 3.0
    vertex 107.85520651265509 103.01124007959639 3.0
    vertex 121.9463835126551 119.39218239595648 3.0
  endloop
endfacet
facet normal -0.0 -0.0 1.0
  outer loop
    vertex 121.9463835126551 119.39218239595648 3.0
    vertex 107.85520651265509 103.01124007959639 3.0
    vertex 121.9463835126551 19.580936395956506 3.0
  endloop
endfacet
facet normal 2.642791401513091e-16 1.0 -0.0
  outer loop
    vertex 22.49193551265509 33.09467507959643 3.0
    vertex 107.85520651265509 33.094675079596406 0.0
    vertex 22.49193551265509 33.09467507959643 0.0
  endloop
endfacet
facet normal 2.642791401513091e-16 1.0 -0.0
  outer loop
    vertex 107.85520651265509 33.094675079596406 0.0
    vertex 22.49193551265509 33.09467507959643 3.0
    vertex 107.85520651265509 33.094675079596406 3.0
  endloop
endfacet
facet normal -1.0 0.0 -0.0
  outer loop
    vertex 107.85520651265509 103.01124007959639 3.0
    vertex 107.85520651265509 33.094675079596406 0.0
    vertex 107.85520651265509 33.094675079596406 3.0
  endloop
endfacet
facet normal -1.0 0.0 -0.0
  outer loop
    vertex 107.85520651265509 33.094675079596406 0.0
    vertex 107.85520651265509 103.01124007959639 3.0
    vertex 107.85520651265509 103.01124007959639 0.0
  endloop
endfacet
facet normal 0.0 -1.0 0.0
  outer loop
    vertex 107.85520651265509 103.01124007959639 3.0
    vertex 22.49193551265509 103.01124007959639 0.0
    vertex 107.85520651265509 103.01124007959639 0.0
  endloop
endfacet
facet normal 0.0 -1.0 0.0
  outer loop
    vertex 22.49193551265509 103.01124007959639 0.0
    vertex 107.85520651265509 103.01124007959639 3.0
    vertex 22.49193551265509 103.01124007959639 3.0
  endloop
endfacet
facet normal -1.0 0.0 0.0
  outer loop
    vertex 22.49193551265509 33.09467507959643 3.0
    vertex 22.49193551265509 19.580936395956506 0.0
    vertex 22.49193551265509 19.580936395956506 3.0
  endloop
endfacet
facet normal -1.0 0.0 0.0
  outer loop
    vertex 22.49193551265509 19.580936395956506 0.0
    vertex 22.49193551265509 33.09467507959643 3.0
    vertex 22.49193551265509 33.09467507959643 0.0
  endloop
endfacet
endsolid simpbase
