solid OpenSCAD_Model
  facet normal 0.866026 0.5 0
    outer loop
      vertex 35.2709 53.1347 20
      vertex 33.1803 56.7557 0
      vertex 33.1803 56.7557 20
    endloop
  endfacet
  facet normal 0.866026 0.5 0
    outer loop
      vertex 33.1803 56.7557 0
      vertex 35.2709 53.1347 20
      vertex 35.2709 53.1347 0
    endloop
  endfacet
  facet normal 0.743144 0.669131 0
    outer loop
      vertex 33.1803 56.7557 20
      vertex 30.3826 59.8629 0
      vertex 30.3826 59.8629 20
    endloop
  endfacet
  facet normal 0.743144 0.669131 0
    outer loop
      vertex 30.3826 59.8629 0
      vertex 33.1803 56.7557 20
      vertex 33.1803 56.7557 0
    endloop
  endfacet
  facet normal -0.406738 0.913545 0
    outer loop
      vertex 10.8197 64.0211 0
      vertex 7 62.3205 20
      vertex 10.8197 64.0211 20
    endloop
  endfacet
  facet normal -0.406738 0.913545 0
    outer loop
      vertex 7 62.3205 20
      vertex 10.8197 64.0211 0
      vertex 7 62.3205 0
    endloop
  endfacet
  facet normal 0.994522 -0.104529 0
    outer loop
      vertex 36.563 40.8418 20
      vertex 37 45 0
      vertex 37 45 20
    endloop
  endfacet
  facet normal 0.994522 -0.104529 0
    outer loop
      vertex 37 45 0
      vertex 36.563 40.8418 20
      vertex 36.563 40.8418 0
    endloop
  endfacet
  facet normal 0.587785 0.809017 -0
    outer loop
      vertex 30.3826 59.8629 0
      vertex 27 62.3205 20
      vertex 30.3826 59.8629 20
    endloop
  endfacet
  facet normal 0.587785 0.809017 0
    outer loop
      vertex 27 62.3205 20
      vertex 30.3826 59.8629 0
      vertex 27 62.3205 0
    endloop
  endfacet
  facet normal 0 1 -0
    outer loop
      vertex 19.0906 64.8904 0
      vertex 14.9094 64.8904 20
      vertex 19.0906 64.8904 20
    endloop
  endfacet
  facet normal 0 1 0
    outer loop
      vertex 14.9094 64.8904 20
      vertex 19.0906 64.8904 0
      vertex 14.9094 64.8904 0
    endloop
  endfacet
  facet normal 0.406737 0.913545 -0
    outer loop
      vertex 27 62.3205 0
      vertex 23.1803 64.0211 20
      vertex 27 62.3205 20
    endloop
  endfacet
  facet normal 0.406737 0.913545 0
    outer loop
      vertex 23.1803 64.0211 20
      vertex 27 62.3205 0
      vertex 23.1803 64.0211 0
    endloop
  endfacet
  facet normal -0.994522 0.104529 0
    outer loop
      vertex -3 45 0
      vertex -2.56295 49.1582 20
      vertex -2.56295 49.1582 0
    endloop
  endfacet
  facet normal -0.994522 0.104529 0
    outer loop
      vertex -2.56295 49.1582 20
      vertex -3 45 0
      vertex -3 45 20
    endloop
  endfacet
  facet normal -0.866026 0.5 0
    outer loop
      vertex -1.27091 53.1347 0
      vertex 0.81966 56.7557 20
      vertex 0.81966 56.7557 0
    endloop
  endfacet
  facet normal -0.866026 0.5 0
    outer loop
      vertex 0.81966 56.7557 20
      vertex -1.27091 53.1347 0
      vertex -1.27091 53.1347 20
    endloop
  endfacet
  facet normal -0.587785 0.809017 0
    outer loop
      vertex 7 62.3205 0
      vertex 3.61739 59.8629 20
      vertex 7 62.3205 20
    endloop
  endfacet
  facet normal -0.587785 0.809017 0
    outer loop
      vertex 3.61739 59.8629 20
      vertex 7 62.3205 0
      vertex 3.61739 59.8629 0
    endloop
  endfacet
  facet normal -0.20791 0.978148 0
    outer loop
      vertex 14.9094 64.8904 0
      vertex 10.8197 64.0211 20
      vertex 14.9094 64.8904 20
    endloop
  endfacet
  facet normal -0.20791 0.978148 0
    outer loop
      vertex 10.8197 64.0211 20
      vertex 14.9094 64.8904 0
      vertex 10.8197 64.0211 0
    endloop
  endfacet
  facet normal -0.743144 0.669131 0
    outer loop
      vertex 0.81966 56.7557 0
      vertex 3.61739 59.8629 20
      vertex 3.61739 59.8629 0
    endloop
  endfacet
  facet normal -0.743144 0.669131 0
    outer loop
      vertex 3.61739 59.8629 20
      vertex 0.81966 56.7557 0
      vertex 0.81966 56.7557 20
    endloop
  endfacet
  facet normal 0.994522 0.104529 0
    outer loop
      vertex 37 45 20
      vertex 36.563 49.1582 0
      vertex 36.563 49.1582 20
    endloop
  endfacet
  facet normal 0.994522 0.104529 0
    outer loop
      vertex 36.563 49.1582 0
      vertex 37 45 20
      vertex 37 45 0
    endloop
  endfacet
  facet normal -0.207912 -0.978148 0
    outer loop
      vertex 10.8197 25.9789 0
      vertex 14.9094 25.1096 20
      vertex 10.8197 25.9789 20
    endloop
  endfacet
  facet normal -0.207912 -0.978148 -0
    outer loop
      vertex 14.9094 25.1096 20
      vertex 10.8197 25.9789 0
      vertex 14.9094 25.1096 0
    endloop
  endfacet
  facet normal 0.587785 -0.809017 0
    outer loop
      vertex 27 27.6795 0
      vertex 30.3826 30.1371 20
      vertex 27 27.6795 20
    endloop
  endfacet
  facet normal 0.587785 -0.809017 0
    outer loop
      vertex 30.3826 30.1371 20
      vertex 27 27.6795 0
      vertex 30.3826 30.1371 0
    endloop
  endfacet
  facet normal 0.951057 0.309017 0
    outer loop
      vertex 36.563 49.1582 20
      vertex 35.2709 53.1347 0
      vertex 35.2709 53.1347 20
    endloop
  endfacet
  facet normal 0.951057 0.309017 0
    outer loop
      vertex 35.2709 53.1347 0
      vertex 36.563 49.1582 20
      vertex 36.563 49.1582 0
    endloop
  endfacet
  facet normal 0.20791 0.978148 -0
    outer loop
      vertex 23.1803 64.0211 0
      vertex 19.0906 64.8904 20
      vertex 23.1803 64.0211 20
    endloop
  endfacet
  facet normal 0.20791 0.978148 0
    outer loop
      vertex 19.0906 64.8904 20
      vertex 23.1803 64.0211 0
      vertex 19.0906 64.8904 0
    endloop
  endfacet
  facet normal 0 0 1
    outer loop
      vertex 34 45 20
      vertex 37 45 20
      vertex 36.563 49.1582 20
    endloop
  endfacet
  facet normal 0 0 1
    outer loop
      vertex 33.6285 48.5345 20
      vertex 36.563 49.1582 20
      vertex 35.2709 53.1347 20
    endloop
  endfacet
  facet normal 0 0 1
    outer loop
      vertex 37 45 20
      vertex 34 45 20
      vertex 36.563 40.8418 20
    endloop
  endfacet
  facet normal -0 0 1
    outer loop
      vertex 33.6285 41.4655 20
      vertex 36.563 40.8418 20
      vertex 34 45 20
    endloop
  endfacet
  facet normal 0 0 1
    outer loop
      vertex 36.563 49.1582 20
      vertex 33.6285 48.5345 20
      vertex 34 45 20
    endloop
  endfacet
  facet normal 0 0 1
    outer loop
      vertex 32.5303 51.9145 20
      vertex 35.2709 53.1347 20
      vertex 33.1803 56.7557 20
    endloop
  endfacet
  facet normal 0 0 1
    outer loop
      vertex 35.2709 53.1347 20
      vertex 32.5303 51.9145 20
      vertex 33.6285 48.5345 20
    endloop
  endfacet
  facet normal 0 0 1
    outer loop
      vertex 33.1803 56.7557 20
      vertex 30.7533 54.9923 20
      vertex 32.5303 51.9145 20
    endloop
  endfacet
  facet normal 0 0 1
    outer loop
      vertex 30.3826 59.8629 20
      vertex 30.7533 54.9923 20
      vertex 33.1803 56.7557 20
    endloop
  endfacet
  facet normal 0 0 1
    outer loop
      vertex 30.3826 59.8629 20
      vertex 28.3752 57.6335 20
      vertex 30.7533 54.9923 20
    endloop
  endfacet
  facet normal 0 0 1
    outer loop
      vertex 27 62.3205 20
      vertex 28.3752 57.6335 20
      vertex 30.3826 59.8629 20
    endloop
  endfacet
  facet normal 0 0 1
    outer loop
      vertex 27 62.3205 20
      vertex 25.5 59.7224 20
      vertex 28.3752 57.6335 20
    endloop
  endfacet
  facet normal 0 0 1
    outer loop
      vertex 23.1803 64.0211 20
      vertex 25.5 59.7224 20
      vertex 27 62.3205 20
    endloop
  endfacet
  facet normal 0 0 1
    outer loop
      vertex 23.1803 64.0211 20
      vertex 22.2533 61.168 20
      vertex 25.5 59.7224 20
    endloop
  endfacet
  facet normal 0 0 1
    outer loop
      vertex 19.0906 64.8904 20
      vertex 22.2533 61.168 20
      vertex 23.1803 64.0211 20
    endloop
  endfacet
  facet normal 0 0 1
    outer loop
      vertex 19.0906 64.8904 20
      vertex 18.777 61.9069 20
      vertex 22.2533 61.168 20
    endloop
  endfacet
  facet normal 0 0 1
    outer loop
      vertex 19.0906 64.8904 20
      vertex 15.223 61.9069 20
      vertex 18.777 61.9069 20
    endloop
  endfacet
  facet normal -0 0 1
    outer loop
      vertex 14.9094 64.8904 20
      vertex 15.223 61.9069 20
      vertex 19.0906 64.8904 20
    endloop
  endfacet
  facet normal 0 0 1
    outer loop
      vertex 14.9094 64.8904 20
      vertex 11.7467 61.168 20
      vertex 15.223 61.9069 20
    endloop
  endfacet
  facet normal -0 0 1
    outer loop
      vertex 10.8197 64.0211 20
      vertex 11.7467 61.168 20
      vertex 14.9094 64.8904 20
    endloop
  endfacet
  facet normal 0 0 1
    outer loop
      vertex 10.8197 64.0211 20
      vertex 8.5 59.7224 20
      vertex 11.7467 61.168 20
    endloop
  endfacet
  facet normal -0 0 1
    outer loop
      vertex 7 62.3205 20
      vertex 8.5 59.7224 20
      vertex 10.8197 64.0211 20
    endloop
  endfacet
  facet normal 0 0 1
    outer loop
      vertex 7 62.3205 20
      vertex 5.62478 57.6335 20
      vertex 8.5 59.7224 20
    endloop
  endfacet
  facet normal -0 0 1
    outer loop
      vertex 3.61739 59.8629 20
      vertex 5.62478 57.6335 20
      vertex 7 62.3205 20
    endloop
  endfacet
  facet normal 0 0 1
    outer loop
      vertex 3.61739 59.8629 20
      vertex 3.24671 54.9923 20
      vertex 5.62478 57.6335 20
    endloop
  endfacet
  facet normal -0 0 1
    outer loop
      vertex 0.81966 56.7557 20
      vertex 3.24671 54.9923 20
      vertex 3.61739 59.8629 20
    endloop
  endfacet
  facet normal 0 0 1
    outer loop
      vertex 3.24671 54.9923 20
      vertex 0.81966 56.7557 20
      vertex 1.46973 51.9145 20
    endloop
  endfacet
  facet normal -0 0 1
    outer loop
      vertex -1.27091 53.1347 20
      vertex 1.46973 51.9145 20
      vertex 0.81966 56.7557 20
    endloop
  endfacet
  facet normal 0 0 1
    outer loop
      vertex 1.46973 51.9145 20
      vertex -1.27091 53.1347 20
      vertex 0.371491 48.5345 20
    endloop
  endfacet
  facet normal 0 0 1
    outer loop
      vertex 0.371491 48.5345 20
      vertex -2.56295 49.1582 20
      vertex 0 45 20
    endloop
  endfacet
  facet normal -0 0 1
    outer loop
      vertex -2.56295 49.1582 20
      vertex 0.371491 48.5345 20
      vertex -1.27091 53.1347 20
    endloop
  endfacet
  facet normal 0 0 1
    outer loop
      vertex 36.563 40.8418 20
      vertex 33.6285 41.4655 20
      vertex 35.2709 36.8653 20
    endloop
  endfacet
  facet normal -0 0 1
    outer loop
      vertex 32.5303 38.0855 20
      vertex 35.2709 36.8653 20
      vertex 33.6285 41.4655 20
    endloop
  endfacet
  facet normal 0 0 1
    outer loop
      vertex 35.2709 36.8653 20
      vertex 32.5303 38.0855 20
      vertex 33.1803 33.2443 20
    endloop
  endfacet
  facet normal -0 0 1
    outer loop
      vertex 30.7533 35.0077 20
      vertex 33.1803 33.2443 20
      vertex 32.5303 38.0855 20
    endloop
  endfacet
  facet normal 0 0 1
    outer loop
      vertex 30.7533 35.0077 20
      vertex 30.3826 30.1371 20
      vertex 33.1803 33.2443 20
    endloop
  endfacet
  facet normal -0 0 1
    outer loop
      vertex 28.3752 32.3665 20
      vertex 30.3826 30.1371 20
      vertex 30.7533 35.0077 20
    endloop
  endfacet
  facet normal 0 0 1
    outer loop
      vertex 28.3752 32.3665 20
      vertex 27 27.6795 20
      vertex 30.3826 30.1371 20
    endloop
  endfacet
  facet normal -0 0 1
    outer loop
      vertex 25.5 30.2776 20
      vertex 27 27.6795 20
      vertex 28.3752 32.3665 20
    endloop
  endfacet
  facet normal 0 0 1
    outer loop
      vertex 25.5 30.2776 20
      vertex 23.1803 25.9789 20
      vertex 27 27.6795 20
    endloop
  endfacet
  facet normal -0 0 1
    outer loop
      vertex 22.2533 28.832 20
      vertex 23.1803 25.9789 20
      vertex 25.5 30.2776 20
    endloop
  endfacet
  facet normal 0 0 1
    outer loop
      vertex 22.2533 28.832 20
      vertex 19.0906 25.1096 20
      vertex 23.1803 25.9789 20
    endloop
  endfacet
  facet normal -0 0 1
    outer loop
      vertex 18.777 28.0931 20
      vertex 19.0906 25.1096 20
      vertex 22.2533 28.832 20
    endloop
  endfacet
  facet normal -0 0 1
    outer loop
      vertex 15.223 28.0931 20
      vertex 19.0906 25.1096 20
      vertex 18.777 28.0931 20
    endloop
  endfacet
  facet normal 0 0 1
    outer loop
      vertex 15.223 28.0931 20
      vertex 14.9094 25.1096 20
      vertex 19.0906 25.1096 20
    endloop
  endfacet
  facet normal 0 0 1
    outer loop
      vertex 11.7467 28.832 20
      vertex 14.9094 25.1096 20
      vertex 15.223 28.0931 20
    endloop
  endfacet
  facet normal 0 0 1
    outer loop
      vertex 11.7467 28.832 20
      vertex 10.8197 25.9789 20
      vertex 14.9094 25.1096 20
    endloop
  endfacet
  facet normal 0 0 1
    outer loop
      vertex 10 26.3438 20
      vertex 11.7467 28.832 20
      vertex 10 29.6097 20
    endloop
  endfacet
  facet normal 0 0 1
    outer loop
      vertex 11.7467 28.832 20
      vertex 10 26.3438 20
      vertex 10.8197 25.9789 20
    endloop
  endfacet
  facet normal -0 0 1
    outer loop
      vertex 0 3 20
      vertex 45 0 20
      vertex 45 3 20
    endloop
  endfacet
  facet normal 0 0 1
    outer loop
      vertex -3 45 20
      vertex 0 45 20
      vertex -2.56295 49.1582 20
    endloop
  endfacet
  facet normal 0 0 1
    outer loop
      vertex 0 45 20
      vertex -3 45 20
      vertex 0 3 20
    endloop
  endfacet
  facet normal 0 0 1
    outer loop
      vertex 0 3 20
      vertex -3 0 20
      vertex 45 0 20
    endloop
  endfacet
  facet normal 0 0 1
    outer loop
      vertex -3 0 20
      vertex 0 3 20
      vertex -3 45 20
    endloop
  endfacet
  facet normal -0.951056 0.309017 0
    outer loop
      vertex -2.56295 49.1582 0
      vertex -1.27091 53.1347 20
      vertex -1.27091 53.1347 0
    endloop
  endfacet
  facet normal -0.951056 0.309017 0
    outer loop
      vertex -1.27091 53.1347 20
      vertex -2.56295 49.1582 0
      vertex -2.56295 49.1582 20
    endloop
  endfacet
  facet normal 0.951057 -0.309017 0
    outer loop
      vertex 35.2709 36.8653 20
      vertex 36.563 40.8418 0
      vertex 36.563 40.8418 20
    endloop
  endfacet
  facet normal 0.951057 -0.309017 0
    outer loop
      vertex 36.563 40.8418 0
      vertex 35.2709 36.8653 20
      vertex 35.2709 36.8653 0
    endloop
  endfacet
  facet normal 0.866026 -0.5 0
    outer loop
      vertex 33.1803 33.2443 20
      vertex 35.2709 36.8653 0
      vertex 35.2709 36.8653 20
    endloop
  endfacet
  facet normal 0.866026 -0.5 0
    outer loop
      vertex 35.2709 36.8653 0
      vertex 33.1803 33.2443 20
      vertex 33.1803 33.2443 0
    endloop
  endfacet
  facet normal 0.207912 -0.978148 0
    outer loop
      vertex 19.0906 25.1096 0
      vertex 23.1803 25.9789 20
      vertex 19.0906 25.1096 20
    endloop
  endfacet
  facet normal 0.207912 -0.978148 0
    outer loop
      vertex 23.1803 25.9789 20
      vertex 19.0906 25.1096 0
      vertex 23.1803 25.9789 0
    endloop
  endfacet
  facet normal 0.406737 -0.913545 0
    outer loop
      vertex 23.1803 25.9789 0
      vertex 27 27.6795 20
      vertex 23.1803 25.9789 20
    endloop
  endfacet
  facet normal 0.406737 -0.913545 0
    outer loop
      vertex 27 27.6795 20
      vertex 23.1803 25.9789 0
      vertex 27 27.6795 0
    endloop
  endfacet
  facet normal 0.743144 -0.669131 0
    outer loop
      vertex 30.3826 30.1371 20
      vertex 33.1803 33.2443 0
      vertex 33.1803 33.2443 20
    endloop
  endfacet
  facet normal 0.743144 -0.669131 0
    outer loop
      vertex 33.1803 33.2443 0
      vertex 30.3826 30.1371 20
      vertex 30.3826 30.1371 0
    endloop
  endfacet
  facet normal -0.406737 -0.913545 0
    outer loop
      vertex 10 26.3438 0
      vertex 10.8197 25.9789 20
      vertex 10 26.3438 20
    endloop
  endfacet
  facet normal -0.406737 -0.913545 -0
    outer loop
      vertex 10.8197 25.9789 20
      vertex 10 26.3438 0
      vertex 10.8197 25.9789 0
    endloop
  endfacet
  facet normal 0 -1 0
    outer loop
      vertex 14.9094 25.1096 0
      vertex 19.0906 25.1096 20
      vertex 14.9094 25.1096 20
    endloop
  endfacet
  facet normal 0 -1 -0
    outer loop
      vertex 19.0906 25.1096 20
      vertex 14.9094 25.1096 0
      vertex 19.0906 25.1096 0
    endloop
  endfacet
  facet normal 0 0 -1
    outer loop
      vertex 45 0 0
      vertex 0 3 0
      vertex 45 3 0
    endloop
  endfacet
  facet normal 0 0 -1
    outer loop
      vertex -3 45 0
      vertex 0 45 0
      vertex 0 3 0
    endloop
  endfacet
  facet normal 0 0 -1
    outer loop
      vertex 0 45 0
      vertex -2.56295 49.1582 0
      vertex -1.27091 53.1347 0
    endloop
  endfacet
  facet normal -0 0 -1
    outer loop
      vertex 0 3 0
      vertex -3 0 0
      vertex -3 45 0
    endloop
  endfacet
  facet normal 0 0 -1
    outer loop
      vertex -3 0 0
      vertex 0 3 0
      vertex 45 0 0
    endloop
  endfacet
  facet normal 0 0 -1
    outer loop
      vertex 34 45 0
      vertex 37 45 0
      vertex 36.563 40.8418 0
    endloop
  endfacet
  facet normal 0 0 -1
    outer loop
      vertex 33.6285 41.4655 0
      vertex 36.563 40.8418 0
      vertex 35.2709 36.8653 0
    endloop
  endfacet
  facet normal 0 0 -1
    outer loop
      vertex 37 45 0
      vertex 34 45 0
      vertex 36.563 49.1582 0
    endloop
  endfacet
  facet normal 0 0 -1
    outer loop
      vertex 33.6285 48.5345 0
      vertex 36.563 49.1582 0
      vertex 34 45 0
    endloop
  endfacet
  facet normal 0 0 -1
    outer loop
      vertex 36.563 40.8418 0
      vertex 33.6285 41.4655 0
      vertex 34 45 0
    endloop
  endfacet
  facet normal 0 0 -1
    outer loop
      vertex 32.5303 38.0855 0
      vertex 35.2709 36.8653 0
      vertex 33.1803 33.2443 0
    endloop
  endfacet
  facet normal 0 0 -1
    outer loop
      vertex 35.2709 36.8653 0
      vertex 32.5303 38.0855 0
      vertex 33.6285 41.4655 0
    endloop
  endfacet
  facet normal 0 0 -1
    outer loop
      vertex 33.1803 33.2443 0
      vertex 30.7533 35.0077 0
      vertex 32.5303 38.0855 0
    endloop
  endfacet
  facet normal 0 0 -1
    outer loop
      vertex 30.3826 30.1371 0
      vertex 30.7533 35.0077 0
      vertex 33.1803 33.2443 0
    endloop
  endfacet
  facet normal 0 0 -1
    outer loop
      vertex 30.3826 30.1371 0
      vertex 28.3752 32.3665 0
      vertex 30.7533 35.0077 0
    endloop
  endfacet
  facet normal 0 0 -1
    outer loop
      vertex 27 27.6795 0
      vertex 28.3752 32.3665 0
      vertex 30.3826 30.1371 0
    endloop
  endfacet
  facet normal 0 0 -1
    outer loop
      vertex 27 27.6795 0
      vertex 25.5 30.2776 0
      vertex 28.3752 32.3665 0
    endloop
  endfacet
  facet normal 0 0 -1
    outer loop
      vertex 23.1803 25.9789 0
      vertex 25.5 30.2776 0
      vertex 27 27.6795 0
    endloop
  endfacet
  facet normal 0 0 -1
    outer loop
      vertex 23.1803 25.9789 0
      vertex 22.2533 28.832 0
      vertex 25.5 30.2776 0
    endloop
  endfacet
  facet normal 0 0 -1
    outer loop
      vertex 19.0906 25.1096 0
      vertex 22.2533 28.832 0
      vertex 23.1803 25.9789 0
    endloop
  endfacet
  facet normal 0 0 -1
    outer loop
      vertex 19.0906 25.1096 0
      vertex 18.777 28.0931 0
      vertex 22.2533 28.832 0
    endloop
  endfacet
  facet normal 0 0 -1
    outer loop
      vertex 19.0906 25.1096 0
      vertex 15.223 28.0931 0
      vertex 18.777 28.0931 0
    endloop
  endfacet
  facet normal 0 0 -1
    outer loop
      vertex 14.9094 25.1096 0
      vertex 15.223 28.0931 0
      vertex 19.0906 25.1096 0
    endloop
  endfacet
  facet normal 0 0 -1
    outer loop
      vertex 14.9094 25.1096 0
      vertex 11.7467 28.832 0
      vertex 15.223 28.0931 0
    endloop
  endfacet
  facet normal 0 0 -1
    outer loop
      vertex 10.8197 25.9789 0
      vertex 11.7467 28.832 0
      vertex 14.9094 25.1096 0
    endloop
  endfacet
  facet normal 0 0 -1
    outer loop
      vertex 10 26.3438 0
      vertex 11.7467 28.832 0
      vertex 10.8197 25.9789 0
    endloop
  endfacet
  facet normal -0 0 -1
    outer loop
      vertex 11.7467 28.832 0
      vertex 10 26.3438 0
      vertex 10 29.6097 0
    endloop
  endfacet
  facet normal -0 0 -1
    outer loop
      vertex 36.563 49.1582 0
      vertex 33.6285 48.5345 0
      vertex 35.2709 53.1347 0
    endloop
  endfacet
  facet normal 0 0 -1
    outer loop
      vertex 32.5303 51.9145 0
      vertex 35.2709 53.1347 0
      vertex 33.6285 48.5345 0
    endloop
  endfacet
  facet normal -0 0 -1
    outer loop
      vertex 35.2709 53.1347 0
      vertex 32.5303 51.9145 0
      vertex 33.1803 56.7557 0
    endloop
  endfacet
  facet normal 0 0 -1
    outer loop
      vertex 30.7533 54.9923 0
      vertex 33.1803 56.7557 0
      vertex 32.5303 51.9145 0
    endloop
  endfacet
  facet normal 0 0 -1
    outer loop
      vertex 30.7533 54.9923 0
      vertex 30.3826 59.8629 0
      vertex 33.1803 56.7557 0
    endloop
  endfacet
  facet normal 0 0 -1
    outer loop
      vertex 28.3752 57.6335 0
      vertex 30.3826 59.8629 0
      vertex 30.7533 54.9923 0
    endloop
  endfacet
  facet normal 0 0 -1
    outer loop
      vertex 28.3752 57.6335 0
      vertex 27 62.3205 0
      vertex 30.3826 59.8629 0
    endloop
  endfacet
  facet normal 0 0 -1
    outer loop
      vertex 25.5 59.7224 0
      vertex 27 62.3205 0
      vertex 28.3752 57.6335 0
    endloop
  endfacet
  facet normal 0 0 -1
    outer loop
      vertex 25.5 59.7224 0
      vertex 23.1803 64.0211 0
      vertex 27 62.3205 0
    endloop
  endfacet
  facet normal 0 0 -1
    outer loop
      vertex 22.2533 61.168 0
      vertex 23.1803 64.0211 0
      vertex 25.5 59.7224 0
    endloop
  endfacet
  facet normal 0 0 -1
    outer loop
      vertex 22.2533 61.168 0
      vertex 19.0906 64.8904 0
      vertex 23.1803 64.0211 0
    endloop
  endfacet
  facet normal 0 0 -1
    outer loop
      vertex 18.777 61.9069 0
      vertex 19.0906 64.8904 0
      vertex 22.2533 61.168 0
    endloop
  endfacet
  facet normal 0 0 -1
    outer loop
      vertex 15.223 61.9069 0
      vertex 19.0906 64.8904 0
      vertex 18.777 61.9069 0
    endloop
  endfacet
  facet normal 0 0 -1
    outer loop
      vertex 15.223 61.9069 0
      vertex 14.9094 64.8904 0
      vertex 19.0906 64.8904 0
    endloop
  endfacet
  facet normal 0 0 -1
    outer loop
      vertex 11.7467 61.168 0
      vertex 14.9094 64.8904 0
      vertex 15.223 61.9069 0
    endloop
  endfacet
  facet normal 0 0 -1
    outer loop
      vertex 11.7467 61.168 0
      vertex 10.8197 64.0211 0
      vertex 14.9094 64.8904 0
    endloop
  endfacet
  facet normal 0 0 -1
    outer loop
      vertex 8.5 59.7224 0
      vertex 10.8197 64.0211 0
      vertex 11.7467 61.168 0
    endloop
  endfacet
  facet normal 0 0 -1
    outer loop
      vertex 8.5 59.7224 0
      vertex 7 62.3205 0
      vertex 10.8197 64.0211 0
    endloop
  endfacet
  facet normal 0 0 -1
    outer loop
      vertex 5.62478 57.6335 0
      vertex 7 62.3205 0
      vertex 8.5 59.7224 0
    endloop
  endfacet
  facet normal 0 0 -1
    outer loop
      vertex 5.62478 57.6335 0
      vertex 3.61739 59.8629 0
      vertex 7 62.3205 0
    endloop
  endfacet
  facet normal 0 0 -1
    outer loop
      vertex 3.24671 54.9923 0
      vertex 3.61739 59.8629 0
      vertex 5.62478 57.6335 0
    endloop
  endfacet
  facet normal 0 0 -1
    outer loop
      vertex 0.81966 56.7557 0
      vertex 3.24671 54.9923 0
      vertex 1.46973 51.9145 0
    endloop
  endfacet
  facet normal 0 0 -1
    outer loop
      vertex 3.24671 54.9923 0
      vertex 0.81966 56.7557 0
      vertex 3.61739 59.8629 0
    endloop
  endfacet
  facet normal 0 0 -1
    outer loop
      vertex -1.27091 53.1347 0
      vertex 1.46973 51.9145 0
      vertex 0.371491 48.5345 0
    endloop
  endfacet
  facet normal 0 0 -1
    outer loop
      vertex -1.27091 53.1347 0
      vertex 0.371491 48.5345 0
      vertex 0 45 0
    endloop
  endfacet
  facet normal 0 0 -1
    outer loop
      vertex 1.46973 51.9145 0
      vertex -1.27091 53.1347 0
      vertex 0.81966 56.7557 0
    endloop
  endfacet
  facet normal 0 0 -1
    outer loop
      vertex 0 45 0
      vertex -3 45 0
      vertex -2.56295 49.1582 0
    endloop
  endfacet
  facet normal -0.866025 -0.5 0
    outer loop
      vertex 32.5303 51.9145 0
      vertex 30.7533 54.9923 20
      vertex 30.7533 54.9923 0
    endloop
  endfacet
  facet normal -0.866025 -0.5 0
    outer loop
      vertex 30.7533 54.9923 20
      vertex 32.5303 51.9145 0
      vertex 32.5303 51.9145 20
    endloop
  endfacet
  facet normal -0.951056 -0.309017 0
    outer loop
      vertex 33.6285 48.5345 0
      vertex 32.5303 51.9145 20
      vertex 32.5303 51.9145 0
    endloop
  endfacet
  facet normal -0.951056 -0.309017 0
    outer loop
      vertex 32.5303 51.9145 20
      vertex 33.6285 48.5345 0
      vertex 33.6285 48.5345 20
    endloop
  endfacet
  facet normal -0.406737 -0.913545 0
    outer loop
      vertex 22.2533 61.168 0
      vertex 25.5 59.7224 20
      vertex 22.2533 61.168 20
    endloop
  endfacet
  facet normal -0.406737 -0.913545 -0
    outer loop
      vertex 25.5 59.7224 20
      vertex 22.2533 61.168 0
      vertex 25.5 59.7224 0
    endloop
  endfacet
  facet normal 0.207911 -0.978148 0
    outer loop
      vertex 11.7467 61.168 0
      vertex 15.223 61.9069 20
      vertex 11.7467 61.168 20
    endloop
  endfacet
  facet normal 0.207911 -0.978148 0
    outer loop
      vertex 15.223 61.9069 20
      vertex 11.7467 61.168 0
      vertex 15.223 61.9069 0
    endloop
  endfacet
  facet normal 0.866025 -0.5 0
    outer loop
      vertex 1.46973 51.9145 20
      vertex 3.24671 54.9923 0
      vertex 3.24671 54.9923 20
    endloop
  endfacet
  facet normal 0.866025 -0.5 0
    outer loop
      vertex 3.24671 54.9923 0
      vertex 1.46973 51.9145 20
      vertex 1.46973 51.9145 0
    endloop
  endfacet
  facet normal -0.994522 0.104528 0
    outer loop
      vertex 33.6285 41.4655 0
      vertex 34 45 20
      vertex 34 45 0
    endloop
  endfacet
  facet normal -0.994522 0.104528 0
    outer loop
      vertex 34 45 20
      vertex 33.6285 41.4655 0
      vertex 33.6285 41.4655 20
    endloop
  endfacet
  facet normal -0.207911 0.978148 0
    outer loop
      vertex 22.2533 28.832 0
      vertex 18.777 28.0931 20
      vertex 22.2533 28.832 20
    endloop
  endfacet
  facet normal -0.207911 0.978148 0
    outer loop
      vertex 18.777 28.0931 20
      vertex 22.2533 28.832 0
      vertex 18.777 28.0931 0
    endloop
  endfacet
  facet normal -0.743145 -0.66913 0
    outer loop
      vertex 30.7533 54.9923 0
      vertex 28.3752 57.6335 20
      vertex 28.3752 57.6335 0
    endloop
  endfacet
  facet normal -0.743145 -0.66913 0
    outer loop
      vertex 28.3752 57.6335 20
      vertex 30.7533 54.9923 0
      vertex 30.7533 54.9923 20
    endloop
  endfacet
  facet normal 0 -1 0
    outer loop
      vertex 15.223 61.9069 0
      vertex 18.777 61.9069 20
      vertex 15.223 61.9069 20
    endloop
  endfacet
  facet normal 0 -1 -0
    outer loop
      vertex 18.777 61.9069 20
      vertex 15.223 61.9069 0
      vertex 18.777 61.9069 0
    endloop
  endfacet
  facet normal -0.587785 -0.809017 0
    outer loop
      vertex 25.5 59.7224 0
      vertex 28.3752 57.6335 20
      vertex 25.5 59.7224 20
    endloop
  endfacet
  facet normal -0.587785 -0.809017 -0
    outer loop
      vertex 28.3752 57.6335 20
      vertex 25.5 59.7224 0
      vertex 28.3752 57.6335 0
    endloop
  endfacet
  facet normal 0.994522 -0.104529 0
    outer loop
      vertex 0 45 20
      vertex 0.371491 48.5345 0
      vertex 0.371491 48.5345 20
    endloop
  endfacet
  facet normal 0.994522 -0.104529 0
    outer loop
      vertex 0.371491 48.5345 0
      vertex 0 45 20
      vertex 0 45 0
    endloop
  endfacet
  facet normal 0.743145 -0.66913 0
    outer loop
      vertex 3.24671 54.9923 20
      vertex 5.62478 57.6335 0
      vertex 5.62478 57.6335 20
    endloop
  endfacet
  facet normal 0.743145 -0.66913 0
    outer loop
      vertex 5.62478 57.6335 0
      vertex 3.24671 54.9923 20
      vertex 3.24671 54.9923 0
    endloop
  endfacet
  facet normal 0.406737 -0.913545 0
    outer loop
      vertex 8.5 59.7224 0
      vertex 11.7467 61.168 20
      vertex 8.5 59.7224 20
    endloop
  endfacet
  facet normal 0.406737 -0.913545 0
    outer loop
      vertex 11.7467 61.168 20
      vertex 8.5 59.7224 0
      vertex 11.7467 61.168 0
    endloop
  endfacet
  facet normal 0.587785 -0.809017 0
    outer loop
      vertex 5.62478 57.6335 0
      vertex 8.5 59.7224 20
      vertex 5.62478 57.6335 20
    endloop
  endfacet
  facet normal 0.587785 -0.809017 0
    outer loop
      vertex 8.5 59.7224 20
      vertex 5.62478 57.6335 0
      vertex 8.5 59.7224 0
    endloop
  endfacet
  facet normal -0.994522 -0.104528 0
    outer loop
      vertex 34 45 0
      vertex 33.6285 48.5345 20
      vertex 33.6285 48.5345 0
    endloop
  endfacet
  facet normal -0.994522 -0.104528 0
    outer loop
      vertex 33.6285 48.5345 20
      vertex 34 45 0
      vertex 34 45 20
    endloop
  endfacet
  facet normal 0.207911 0.978148 -0
    outer loop
      vertex 15.223 28.0931 0
      vertex 11.7467 28.832 20
      vertex 15.223 28.0931 20
    endloop
  endfacet
  facet normal 0.207911 0.978148 0
    outer loop
      vertex 11.7467 28.832 20
      vertex 15.223 28.0931 0
      vertex 11.7467 28.832 0
    endloop
  endfacet
  facet normal -0.587785 0.809017 0
    outer loop
      vertex 28.3752 32.3665 0
      vertex 25.5 30.2776 20
      vertex 28.3752 32.3665 20
    endloop
  endfacet
  facet normal -0.587785 0.809017 0
    outer loop
      vertex 25.5 30.2776 20
      vertex 28.3752 32.3665 0
      vertex 25.5 30.2776 0
    endloop
  endfacet
  facet normal -0.207911 -0.978148 0
    outer loop
      vertex 18.777 61.9069 0
      vertex 22.2533 61.168 20
      vertex 18.777 61.9069 20
    endloop
  endfacet
  facet normal -0.207911 -0.978148 -0
    outer loop
      vertex 22.2533 61.168 20
      vertex 18.777 61.9069 0
      vertex 22.2533 61.168 0
    endloop
  endfacet
  facet normal 0.951056 -0.309017 0
    outer loop
      vertex 0.371491 48.5345 20
      vertex 1.46973 51.9145 0
      vertex 1.46973 51.9145 20
    endloop
  endfacet
  facet normal 0.951056 -0.309017 0
    outer loop
      vertex 1.46973 51.9145 0
      vertex 0.371491 48.5345 20
      vertex 0.371491 48.5345 0
    endloop
  endfacet
  facet normal -0.951056 0.309017 0
    outer loop
      vertex 32.5303 38.0855 0
      vertex 33.6285 41.4655 20
      vertex 33.6285 41.4655 0
    endloop
  endfacet
  facet normal -0.951056 0.309017 0
    outer loop
      vertex 33.6285 41.4655 20
      vertex 32.5303 38.0855 0
      vertex 32.5303 38.0855 20
    endloop
  endfacet
  facet normal -0.866025 0.5 0
    outer loop
      vertex 30.7533 35.0077 0
      vertex 32.5303 38.0855 20
      vertex 32.5303 38.0855 0
    endloop
  endfacet
  facet normal -0.866025 0.5 0
    outer loop
      vertex 32.5303 38.0855 20
      vertex 30.7533 35.0077 0
      vertex 30.7533 35.0077 20
    endloop
  endfacet
  facet normal -0.743145 0.66913 0
    outer loop
      vertex 28.3752 32.3665 0
      vertex 30.7533 35.0077 20
      vertex 30.7533 35.0077 0
    endloop
  endfacet
  facet normal -0.743145 0.66913 0
    outer loop
      vertex 30.7533 35.0077 20
      vertex 28.3752 32.3665 0
      vertex 28.3752 32.3665 20
    endloop
  endfacet
  facet normal 0 1 -0
    outer loop
      vertex 18.777 28.0931 0
      vertex 15.223 28.0931 20
      vertex 18.777 28.0931 20
    endloop
  endfacet
  facet normal 0 1 0
    outer loop
      vertex 15.223 28.0931 20
      vertex 18.777 28.0931 0
      vertex 15.223 28.0931 0
    endloop
  endfacet
  facet normal -0.406737 0.913545 0
    outer loop
      vertex 25.5 30.2776 0
      vertex 22.2533 28.832 20
      vertex 25.5 30.2776 20
    endloop
  endfacet
  facet normal -0.406737 0.913545 0
    outer loop
      vertex 22.2533 28.832 20
      vertex 25.5 30.2776 0
      vertex 22.2533 28.832 0
    endloop
  endfacet
  facet normal 0.406737 0.913545 -0
    outer loop
      vertex 11.7467 28.832 0
      vertex 10 29.6097 20
      vertex 11.7467 28.832 20
    endloop
  endfacet
  facet normal 0.406737 0.913545 0
    outer loop
      vertex 10 29.6097 20
      vertex 11.7467 28.832 0
      vertex 10 29.6097 0
    endloop
  endfacet
  facet normal 1 -0 0
    outer loop
      vertex 0 3 20
      vertex 0 45 0
      vertex 0 45 20
    endloop
  endfacet
  facet normal 1 0 0
    outer loop
      vertex 0 45 0
      vertex 0 3 20
      vertex 0 3 0
    endloop
  endfacet
  facet normal -1 0 0
    outer loop
      vertex 10 26.3438 0
      vertex 10 29.6097 20
      vertex 10 29.6097 0
    endloop
  endfacet
  facet normal -1 -0 0
    outer loop
      vertex 10 29.6097 20
      vertex 10 26.3438 0
      vertex 10 26.3438 20
    endloop
  endfacet
  facet normal 1 -0 0
    outer loop
      vertex 45 0 20
      vertex 45 3 0
      vertex 45 3 20
    endloop
  endfacet
  facet normal 1 0 0
    outer loop
      vertex 45 3 0
      vertex 45 0 20
      vertex 45 0 0
    endloop
  endfacet
  facet normal 0 -1 0
    outer loop
      vertex -3 0 0
      vertex 45 0 20
      vertex -3 0 20
    endloop
  endfacet
  facet normal 0 -1 -0
    outer loop
      vertex 45 0 20
      vertex -3 0 0
      vertex 45 0 0
    endloop
  endfacet
  facet normal 0 1 -0
    outer loop
      vertex 45 3 0
      vertex 0 3 20
      vertex 45 3 20
    endloop
  endfacet
  facet normal 0 1 0
    outer loop
      vertex 0 3 20
      vertex 45 3 0
      vertex 0 3 0
    endloop
  endfacet
  facet normal -1 2.11928e-08 0
    outer loop
      vertex -3 0 0
      vertex -3 45 20
      vertex -3 45 0
    endloop
  endfacet
  facet normal -1 2.11928e-08 0
    outer loop
      vertex -3 45 20
      vertex -3 0 0
      vertex -3 0 20
    endloop
  endfacet
endsolid OpenSCAD_Model
